<svg xmlns="http://www.w3.org/2000/svg" xmlns:xlink="http://www.w3.org/1999/xlink" width="100" height="29.37" viewBox="0 0 100 29.37">
  <defs>
    <clipPath id="clip-path">
      <rect id="長方形_5988" data-name="長方形 5988" width="100" height="29.37" transform="translate(1187 1189)" fill="#fff" stroke="#707070" stroke-width="1"/>
    </clipPath>
    <clipPath id="clip-path-2">
      <rect id="長方形_5989" data-name="長方形 5989" width="99.213" height="28.823" fill="#b9a56e"/>
    </clipPath>
  </defs>
  <g id="マスクグループ_139" data-name="マスクグループ 139" transform="translate(-1187 -1189)" clip-path="url(#clip-path)">
    <g id="グループ_19335" data-name="グループ 19335" transform="translate(1187.787 1189)">
      <g id="グループ_19335-2" data-name="グループ 19335" transform="translate(0 0)" clip-path="url(#clip-path-2)">
        <path id="パス_2244" data-name="パス 2244" d="M75.469,37.354c0-2,1.073-6.141,5.275-6.141a4.511,4.511,0,0,1,4.482,3.382,6.486,6.486,0,0,1,.235,1.9c-.805-.016-7.356-.016-7.848,0a7.258,7.258,0,0,0,.235,3.127,4.672,4.672,0,0,0,.749,1.429A3.608,3.608,0,0,0,79.805,42a3.681,3.681,0,0,0,1.655.354,4.357,4.357,0,0,0,.917-.134,4.966,4.966,0,0,0,2.637-1.7l.174.046a4.427,4.427,0,0,1-2.062,2.326,4.922,4.922,0,0,1-2.069.415c-3.337,0-5.589-2.662-5.589-5.955m5.32-5.754c-2.119,0-3.159,2.759-3.131,4.184.462.016,5.4.016,5.882,0,0-1.493-.632-4.184-2.751-4.184" transform="translate(-37.735 -15.607)" fill="#b9a56e"/>
        <path id="パス_2245" data-name="パス 2245" d="M142.518,21.2a1.064,1.064,0,0,1,.34-.792,1.175,1.175,0,0,1,1.633,0,1.091,1.091,0,0,1,0,1.583,1.175,1.175,0,0,1-1.633,0,1.064,1.064,0,0,1-.34-.792" transform="translate(-71.259 -10.038)" fill="#b9a56e"/>
        <path id="パス_2246" data-name="パス 2246" d="M160.2,30.845c-3.606,0-5.734,2.79-5.734,6.231s2.128,6.231,5.734,6.231,5.734-2.79,5.734-6.231-2.128-6.231-5.734-6.231m0,12.063c-2.289,0-3.64-2.808-3.64-5.811s1.351-5.811,3.64-5.811,3.64,2.807,3.64,5.811-1.351,5.811-3.64,5.811" transform="translate(-77.233 -15.423)" fill="#b9a56e"/>
        <path id="パス_2247" data-name="パス 2247" d="M62.813,31.34c-1.633-1.2-3.737.514-4.727,2.272l-.048-.023V31.983c0-.984-1.322-.886-1.851-1.247V42.9h1.851V34.979a3.8,3.8,0,0,1,.768-1.729,3.035,3.035,0,0,1,3.381-.871,1.646,1.646,0,0,1,.913,1.334s.833-1.551-.288-2.373" transform="translate(-28.094 -15.368)" fill="#b9a56e"/>
        <path id="パス_2248" data-name="パス 2248" d="M190.628,31.34c-1.633-1.2-3.737.514-4.727,2.272l-.048-.023V31.983c0-.984-1.322-.886-1.851-1.247V42.9h1.851V34.979a3.8,3.8,0,0,1,.768-1.729A3.035,3.035,0,0,1,190,32.379a1.646,1.646,0,0,1,.913,1.334s.833-1.551-.288-2.373" transform="translate(-92.001 -15.368)" fill="#b9a56e"/>
        <path id="パス_2249" data-name="パス 2249" d="M144.9,42.915H143.05V30.758c.462.465,1.851.274,1.851,1.258Z" transform="translate(-71.525 -15.379)" fill="#b9a56e"/>
        <path id="パス_2250" data-name="パス 2250" d="M118.566,42.858l-.015-8.092a5.381,5.381,0,0,0-.255-1.76,3.169,3.169,0,0,0-.709-1.2,3.879,3.879,0,0,0-2.647-.9,3.745,3.745,0,0,0-3.569,2.419h-.044a2.727,2.727,0,0,0-.422-.965,3.2,3.2,0,0,0-.743-.769,3.613,3.613,0,0,0-.964-.5,3.335,3.335,0,0,0-1.087-.183,3.563,3.563,0,0,0-3.3,2.2H104.8V31.936c0-.984-1.6-1.05-1.851-1.338V42.855H104.8V34.273a2.974,2.974,0,0,1,2.733-2.622c1.685.106,2.255,1.321,2.293,3.661l-.007,7.546h1.771s-.007-7.6-.007-7.738c0-1.738.774-3.76,3.061-3.541,1.574.151,2.136,1.7,2.136,3.53l0,7.75Z" transform="translate(-51.473 -15.299)" fill="#b9a56e"/>
        <path id="パス_2251" data-name="パス 2251" d="M3.9,28.22c2.628.125,4.453-1.495,5.2-5.41.624-3.271.692-9.346,1.219-13.006.631-4.384,3.746-7.309,7.111-7.472.218-.01.31.051.156.1-3.6,1.069-4.177,3.412-4.914,8.14-.338,2.175-.328,4.6-.575,7.611,5.843,1.78,13.887-3.8,12.691-11.486-.337-2.163-3.276-5.6-7.621-6C9.274-.019,2.514,3.916,2.155,9.951c-.243,4.059,1.9,6.521,4.339,7.324.231.076.1.241-.223.215C3.426,17.251-.267,14.181.016,10.73.422,5.751,7.484-.217,16.606.006,24.288.195,27.2,4.787,27.2,9.021c0,5.435-7.336,11.64-15.144,9.953a36.94,36.94,0,0,1-.538,3.9c-.925,4.634-3.939,6.024-7.159,5.945Z" transform="translate(0 0)" fill="#b9a56e"/>
      </g>
    </g>
  </g>
</svg>
