<svg data-name="Group 18747" xmlns="http://www.w3.org/2000/svg" width="28.5" height="28.3"><circle data-name="Ellipse 1238" cx="7.2" cy="7.2" r="7.2" transform="translate(7 6.9)" fill="#f29a0c"/><path data-name="Line 9" fill="none" stroke="#f29a0c" stroke-linecap="round" stroke-miterlimit="10" d="M14.2.5V5"/><path data-name="Line 10" fill="none" stroke="#f29a0c" stroke-linecap="round" stroke-miterlimit="10" d="M14.2 23.2v4.6"/><path data-name="Line 11" fill="none" stroke="#f29a0c" stroke-linecap="round" stroke-miterlimit="10" d="M28 14.1h-4.5"/><path data-name="Line 12" fill="none" stroke="#f29a0c" stroke-linecap="round" stroke-miterlimit="10" d="M23.9 4.8l-3.3 3.1"/><path data-name="Line 13" fill="none" stroke="#f29a0c" stroke-linecap="round" stroke-miterlimit="10" d="M19 3.4l-.9 2.1"/><path data-name="Line 14" fill="none" stroke="#f29a0c" stroke-linecap="round" stroke-miterlimit="10" d="M24.7 9.7l-2 1.1"/><path data-name="Line 15" fill="none" stroke="#f29a0c" stroke-linecap="round" stroke-miterlimit="10" d="M5.6 10.8L3.7 9.6"/><path data-name="Line 16" fill="none" stroke="#f29a0c" stroke-linecap="round" stroke-miterlimit="10" d="M24.7 18.4l-2-1.1"/><path data-name="Line 17" fill="none" stroke="#f29a0c" stroke-linecap="round" stroke-miterlimit="10" d="M5.6 17.3l-1.9 1.2"/><path data-name="Line 18" fill="none" stroke="#f29a0c" stroke-linecap="round" stroke-miterlimit="10" d="M18.8 24.5l-.9-2.1"/><path data-name="Line 19" fill="none" stroke="#f29a0c" stroke-linecap="round" stroke-miterlimit="10" d="M9.5 3.3l.9 2.1"/><path data-name="Line 20" fill="none" stroke="#f29a0c" stroke-linecap="round" stroke-miterlimit="10" d="M9.7 24.4l.9-2.1"/><path data-name="Line 21" fill="none" stroke="#f29a0c" stroke-linecap="round" stroke-miterlimit="10" d="M23.9 23.4l-3.3-3"/><path data-name="Line 22" fill="none" stroke="#f29a0c" stroke-linecap="round" stroke-miterlimit="10" d="M4.2 4.8l3.4 3.1"/><path data-name="Line 23" fill="none" stroke="#f29a0c" stroke-linecap="round" stroke-miterlimit="10" d="M4.2 23.4l3.4-3"/><path data-name="Line 24" fill="none" stroke="#f29a0c" stroke-linecap="round" stroke-miterlimit="10" d="M5 14.1H.5"/></svg>