<svg xmlns="http://www.w3.org/2000/svg" width="90" height="90"><g data-name="Group 18753" transform="translate(30.001 22.016)"><circle data-name="Ellipse 1241" cx="45" cy="45" r="45" transform="translate(-30.001 -22.016)" opacity=".3"/><path data-name="Path 952" d="M27.566 24.612a10.031 10.031 0 00-.992-6.518c-1.771-3.471-5.172-9.351-5.172-9.351s-.921-1.629-2.338-1.2c-1.559.5-1.488 1.559-1.488 1.559" fill="none" stroke="#fff" stroke-linecap="round" stroke-miterlimit="10"/><path data-name="Path 953" d="M19.561 12.71l-1.984-3.684a2.009 2.009 0 00-2.55-1.063 2.406 2.406 0 00-1.275 1.559" fill="none" stroke="#fff" stroke-linecap="round" stroke-miterlimit="10"/><path data-name="Path 954" d="M16.302 14.198l-1.984-3.684s-1.559-3.046-3.259-2.054a1.736 1.736 0 00-1.133 1.487" fill="none" stroke="#fff" stroke-linecap="round" stroke-miterlimit="10"/><path data-name="Path 955" d="M13.468 15.757L5.605 2.934a2.06 2.06 0 00-2.48-.921c-1.2.638-.638 2.338-.425 2.692s8.005 13.956 8.005 13.956a5.635 5.635 0 01.779 2.48c0 .638-.425 1.7-2.48 1.488" fill="none" stroke="#fff" stroke-linecap="round" stroke-miterlimit="10"/><path data-name="Path 956" d="M11.485 21.141c0 .638-.425 1.488-2.48 1.488H4.117S1.071 22.77 1 24.896s5.03 1.845 5.03 1.845 1.913-.142 4.6 1.771c2.621 1.913 7.439 1.771 7.439 1.771" fill="none" stroke="#fff" stroke-linecap="round" stroke-miterlimit="10"/><path data-name="Path 957" d="M10.114.984h19l-2.22-3" fill="none" stroke="#fff"/><text transform="translate(15.999 45.984)" fill="#fff" font-size="10" font-family="Lato-Regular, Lato" letter-spacing=".15em"><tspan x="-22.03" y="0">SCROLL</tspan></text></g></svg>