<svg xmlns="http://www.w3.org/2000/svg" viewBox="0 0 185.71 92.26"><defs><style>.cls-1{fill:#e50c85}</style></defs><g id="レイヤー_2" data-name="レイヤー 2"><g id="レイヤー_1-2" data-name="レイヤー 1"><path class="cls-1" d="M160.2 51.85C155.48 52.73 104 66 104 66s-15.09 3.57-20.73 5.18-29.73 8-42.27 11.5S10.86 91 9.14 92.1s15.36-3.92 15.36-3.92 1.1.06 15.5-3.91 19.38-5.39 19.38-5.39l14.77-4 20.77-5.34 46.52-11.82L160.29 53l1.84-.13s2.8-1.87-1.93-1.02zM9.64 86.35c.27-.15.55-.23.6-.8-.86-.45-2-.56-2.78-1.44a7.67 7.67 0 00-.38-.89 11.11 11.11 0 01-.9-3.67c-.08-.28.05-.56 0-.91A16.09 16.09 0 006.62 76c0-1.61.73-3.17.74-4.78.06-.21.2-.36.26-.57a3.61 3.61 0 00.25-.85 13.91 13.91 0 01.61-2.16l.15.07a6.83 6.83 0 001.69 0 14.33 14.33 0 013.52-.14c.1.18.76 0 1.59-.14 1.71.27 3.29.5 4.84.81l2.93.76a20.64 20.64 0 012.06.36 20.09 20.09 0 012 .65 74.42 74.42 0 0110.81 4.49c.21 0 .4.18.61.23a6.87 6.87 0 012.38 1.45c.31.23.59.61.9.84a.66.66 0 001-.14 1 1 0 00-.34-1c-.36-.32-.8-.66-1.23-1a36 36 0 00-5.6-3.11 100.3 100.3 0 00-10-3.73c-1.49-.53-3-1-4.54-1.37.47-.11-1.26-.35-2.63-.55a32.48 32.48 0 01-3.38-.27 19.06 19.06 0 00-2.1-.26 2.52 2.52 0 00-1.09-.12 2.07 2.07 0 01-.65.12c1-.64 2.18-.92 3.17-1.53a9 9 0 002.19-1.4 3.5 3.5 0 011.44-.75 7.9 7.9 0 002-1 16.14 16.14 0 011.8-1.28 5.9 5.9 0 001.78-1 24.85 24.85 0 013.68-2.78.47.47 0 00.34-.29A3.94 3.94 0 0129.9 54a12.11 12.11 0 01.8-1.08c1.52-.47 2.39-1.76 3.61-2.64a8.58 8.58 0 011.89-2 9.37 9.37 0 00.81-.86 8.21 8.21 0 012-2.66c.33-.36.6-.79.94-1.15a4 4 0 00.52-.93 10 10 0 00.85-3.8c-.28-2.09-1.15-2.83-2.72-4a4.44 4.44 0 00-3.6-1 .89.89 0 01-.56-.2c-.58-.39-1.13-.24-1.76-.28-1.12 0-2.24.07-3.36 0a25.69 25.69 0 00-3.27.33l-3.41.54c-1.25.18-2.44.22-3.62.47-1.59.33-3.11.81-4.71 1.21-.2.08-.48.09-.76.17-.55.16-1.18.25-1.73.41-.83.24-1.66.55-2.49.79s-1.8.55-2.7.86a33.87 33.87 0 00-6.45 3.55c-.12.35-.32.71 0 1.12a1 1 0 00.92.38h.28a4 4 0 00.91-.1 1 1 0 00.41-.29c.05-.49-.73-.68-.26-1.25a1.29 1.29 0 01.35-.22c1.66-.55 3.16-1.51 4.89-2 .28 0 .48-.23.69-.3a5.37 5.37 0 01.63-.31c1.8-.48 3.6-1 5.4-1.51a4.63 4.63 0 01.9-.18c1.11-.24 2.3-.36 3.41-.6 1.45-.26 2.91-.59 4.3-.92.21 0 .41-.09.62-.09h.28c.77 0 1.53-.2 2.3-.22a3.94 3.94 0 01.91 0h.14l2.12-.24a6 6 0 011.12-.11c1.6-.06 3.08.17 4.69.25.84 0 2.91 1.16 3.55 1.56.15.34.17.76.38 1 .59.68 0 1.4.29 2.09-.33.72-.58 1.49-.91 2.2l-.78 1.5a4.81 4.81 0 01-1.4 1.93 11.67 11.67 0 00-2.17 2 2.71 2.71 0 01-.88.87 6.69 6.69 0 00-1.62 1.52c-.54.51-1.16 1-1.84 1.53a2.19 2.19 0 01-.94.87A26.34 26.34 0 0126 54.25c-.07 0-.07.07-.14.08-.18.7-.87.94-1.42 1.31-1.5 1-3.29 1.79-4.65 3.09a1.37 1.37 0 01-.54.3A8.49 8.49 0 0017 60.51a7.39 7.39 0 01-1 .66 28.43 28.43 0 00-5 2.69 1.18 1.18 0 01-.7.24.76.76 0 01-.63-.19 7.87 7.87 0 01.23-1.27c.64-1.77.78-3.66 1.49-5.43a.35.35 0 00.06-.28 7 7 0 01.81-2.9 11.62 11.62 0 00.61-2.67 4.21 4.21 0 01.24-1c.13-.49.32-1 .44-1.48l.74-3v-.35c-.09-.28-.25-.69-.4-1.11a2.85 2.85 0 00-.9.32 1 1 0 00-.39.64c-.39 1.06-.7 2.19-1 3.32a1.77 1.77 0 00.11 1 1.7 1.7 0 01-.16 1.41 5.47 5.47 0 00-.64 1.7c-.44 1.48-.46 3-1.18 4.44-.07.08 0 .28-.05.42L9.31 59a13.18 13.18 0 01-.5 1.62c-.31 1.16-.69 2.38-1 3.38-.75.66-1.43 1.17-2 1.75 0 .35.09.63.1.9a4.3 4.3 0 00.93.67c-.06.35 0 .77-.1 1a4.77 4.77 0 01-.32.92c-.06.28-.19.64-.24 1-.23 1.62-.45 3.23-.82 4.78a9 9 0 00-.24 3 10.54 10.54 0 01.07 2.1 6.09 6.09 0 00.37 2.5 5 5 0 001.05 1.86l.66 1a4.14 4.14 0 002 .84c.09.1.23.03.37.03zM44.28 68.56a3.89 3.89 0 001.07 3.34c1.24 1.72 2.37 2 4.32 1.68a22.91 22.91 0 012.33-.53c1.53-1.11 2.78-2.18 4.23-3.18a4.34 4.34 0 001.48-1.5 3.47 3.47 0 011-1.54 6.81 6.81 0 00.84-1.22 6.24 6.24 0 00.25 1.12 3.36 3.36 0 001.5 2.15 19.61 19.61 0 001.9.8 9.93 9.93 0 004.5-1.78 10.54 10.54 0 002.52-2.64A26 26 0 0172.45 62a5.68 5.68 0 001-1.56v1.31a4.62 4.62 0 00.62 2.21 1.72 1.72 0 002 .81 7 7 0 002.51-1.25 5.5 5.5 0 01.58-1.57 8.69 8.69 0 001.11-4.84 5.71 5.71 0 010-1.89c1.2 0 2.42.25 3.51.2s.47-.17 1.54-.42a15.7 15.7 0 001.92-.57c-.06 1.43-.18 2.81-.22 4.25a2.88 2.88 0 000 .59c.14 1 .28 1.95.47 2.92a1.35 1.35 0 001 1.05c.26 0 .49-.27.68-.79l.35-1c.66-2.08 1.43-4.18 2-6.45a18.27 18.27 0 01.82-2.5 3.87 3.87 0 011.57-2c.2.67.5 1.22.64 1.9.28.86.61 1.31 1 1.35a3.47 3.47 0 001.08-1.35 8.84 8.84 0 012-3.07 5.25 5.25 0 011.48 1.49c.79 1.11 1.63 2.19 2.53 3.23a1.22 1.22 0 01.54-.28.82.82 0 01.56.22 1.69 1.69 0 001.23.43 3.08 3.08 0 001.57-.92 12.5 12.5 0 002.59-5.34c.1-.42-.08-.89-.35-1a.21.21 0 00-.19.13c-.44 1-1.61 2.91-2.16 3.89-.18.22-.52.47-.75.7a1.6 1.6 0 01-.84.42c-.42 0-.87-.09-1.34 0a10.92 10.92 0 01-2.5-2.68 16.71 16.71 0 00-1.26-1.41 1 1 0 00-1.1-.35A2 2 0 0097 49a21.79 21.79 0 00-1.34 2.17c-.09.12-.23.24-.41.46a11.94 11.94 0 00-.25-1.47c-.26-1.16-.72-1.79-1.3-1.71-.1 0-.19.13-.29.14a2.38 2.38 0 00-1 1 63.36 63.36 0 00-2.48 6.92 42 42 0 01-1.46 4 17.89 17.89 0 01-.1-4.07 30.74 30.74 0 00.31-3.83 11.66 11.66 0 01.12-2.21 17.9 17.9 0 00.26-2.32 12.65 12.65 0 01.14-1.62 21.24 21.24 0 00.07-3.29c0-.2-.18-.47-.28-.86l-.42.06c-.63.39-.87 1.32-.74 2.59a6.69 6.69 0 01-.06 2.6 3.77 3.77 0 00-.23 1.73 26.66 26.66 0 01-.21 3.43 3.13 3.13 0 00-.52 0c-1.95.28-2.16.21-4.12.38a2.7 2.7 0 01-2.37-.56c-.21-.77-.61-1.51-.79-2.08a1.87 1.87 0 00-1.53-.52c-.58.08-1 .34-1.53.41a1.38 1.38 0 01-.7 0 19 19 0 00-2.16 7.86 75 75 0 01-4.87 6.88 14.69 14.69 0 01-3.3 2.68 7 7 0 00-.65.39 14.27 14.27 0 01-1.6-.07c-.1 0-.1 0-.32-.11 0-.08-.24-.27-.36-.41-.95-1.08-.94-2.46-1.32-3.7-.17-.51.09-.85.12-1.31a2 2 0 000-.77 1.56 1.56 0 010-.68 32.92 32.92 0 001.39-4.32 8.1 8.1 0 013.6-4.16 3.09 3.09 0 01.66-.25 1.37 1.37 0 011.15.38c.22.19.44.32.66.51.75-.33.92-.58.78-.87a1.77 1.77 0 00-1.44-1 4.72 4.72 0 00-1.59 0 5 5 0 00-2.56 1c-3.41 2.81-4.27 6.5-4.43 10.08a14 14 0 01-1.28 2.49c-.61 1.28-.67.89-1.41 2-.5.67-.94 1.13-1.36 1.69a14 14 0 01-5.33 3.14c-1.37.19-3 .21-3.67-1.28a5.43 5.43 0 01-.73-2.39l.17-.22a.7.7 0 01.36-.25 11.78 11.78 0 005.41-6.14c1-2.23.37-3.73-1.93-5.2-.67.19-1.43.4-2.3.62a9.85 9.85 0 00-2.69 5.65 5.67 5.67 0 01-.22 1.23 7.06 7.06 0 00-.3 3.53c-.08.43.19.89.03 1.21zm31.1-7.91a37 37 0 011.45-8.16c.62.9 1.12 1.63 1.61 2.26.09 1.38-.62 6.26-1.68 7.2a2.34 2.34 0 01-.7.7 2.35 2.35 0 01-.68-2zM48.77 58c.33.16.64.31 1.07.55a1.39 1.39 0 01.56 1.81A10.89 10.89 0 0148.33 64c-.53.47-1 .84-1.41 1.29-.9 0-1.36-.4-1.23-.92.69-2.18 1.31-4.45 3.08-6.37zM173.26 29a9.57 9.57 0 001.68-2.72 3.18 3.18 0 01.46-1c1.22-1.81 2.34-3.53 3.46-5.34a41 41 0 002.33-3.94c1.2-2.41 2.2-4.81 3.3-7.22.82-2 1.54-4 1.07-6.25 0-.4.07-.8.05-1.39a4.18 4.18 0 00-3.2-1.14 2.29 2.29 0 00-2 1c-1.12 1.81-2.14 3.72-3.35 5.54s-1.25 3.89-2.57 5.61c-1.18 3-2.45 6.11-3.33 9.2a15.09 15.09 0 00-.86 3.58c-.12 2.47-1.12 4.87-1.33 7.35a3 3 0 01-.73 1.5c-.56.91-1.22 1.82-1.78 2.73a22.27 22.27 0 01-3.62 3.77 1.33 1.33 0 01-.75-1.74c.71-2.29 1.79-5.19 4.33-6 .59-.12 1.07-.43 1.56-.55.08-.69-.23-.88-.72-1-3.94.14-5.71 3.26-6.17 6.92l-.26 1.2A2.07 2.07 0 00161 41a1.87 1.87 0 001.52 1.13c.39-.22 1-.53 1.45-.74a5.31 5.31 0 002.1-2c.47-.81.94-1.41 1.41-2.12.09-.2.29-.21.58-.22l.12 3.35a19.17 19.17 0 00.36 4.72c.67 2.15.94 4.31 2 6.34 1.59 3 4.83 5.66 8.38 5.53a5 5 0 001.67-.25c.38-.51 1.15-.83 1.22-1.82h-.79a10.5 10.5 0 00-1.68.16c-3 .11-5.08-1.4-6.55-4-1-1.74-1.79-3.29-1.66-5.17s-.43-3.73.2-5.53V40c-.53-1.16.22-2.37-.12-3.54a22.67 22.67 0 00.47-3.57 6.29 6.29 0 011.58-3.89zm1.55-9.13c.56-1.11.71-2.3 1.17-3.4 1.36-3.5 2.81-7 4.38-10.31a9.37 9.37 0 012.44-3.34c.79 0 1.1.26 1.21.55a20.53 20.53 0 01-2.19 8c-.93 1.8-1.95 3.52-2.68 5.32A41.69 41.69 0 01176 22a18.68 18.68 0 00-1.4 2.31c-.18.41-.57.62-.85.92a23.41 23.41 0 011.06-5.41zM110.57 57.57a1.38 1.38 0 001.05 1c.26 0 .49-.27.68-.8l.35-.94c.66-2.09 1.43-4.19 1.95-6.45a17.51 17.51 0 01.82-2.51 3.9 3.9 0 011.57-2c.2.67.49 1.23.64 1.9.28.86.61 1.31 1 1.35a3.48 3.48 0 001.08-1.35 8.7 8.7 0 012-3.07 5.25 5.25 0 011.48 1.49 41.18 41.18 0 002.52 3.23 1.31 1.31 0 01.55-.28.84.84 0 01.56.22 1.61 1.61 0 001.22.43 3 3 0 001.57-.92 12.21 12.21 0 001.71-2.72 1 1 0 010 .55 4.27 4.27 0 001 3.34 3.34 3.34 0 003.89 1.75 16.38 16.38 0 012.07-.49c1.36-1.09 2.45-2.14 3.74-3.12a3.87 3.87 0 001.3-1.48 3.18 3.18 0 01.86-1.51 7.05 7.05 0 001-1.8v1.2a13.11 13.11 0 00.21 3.75 4.59 4.59 0 00.17.48c.24.17.49.34.75.49a5.17 5.17 0 01.36-.75c.75-2.1 1.57-4.1 2.26-6.19a9.18 9.18 0 012.32-4.31 2 2 0 01.53.42c0 .5.09 1 .12 1.58a.67.67 0 01.21.36 14.86 14.86 0 01.46 1.43 3.12 3.12 0 001.51 2.15c.44.14.93.26 1.37.4a7 7 0 001-1.13 3.76 3.76 0 00.94-2.22 4.54 4.54 0 01.27-1 4.14 4.14 0 00.28-1c.07-.61.15-1.12.22-1.73s.11-1.11.09-1.6a.81.81 0 00-.43-.84 8.62 8.62 0 00-.39.95c-.26 1.13-.41 2.25-.68 3.29-.6 2.07-.79 2.6-2.12 2.78l-.46.07c-.31-.36-.63-.81-.83-1.08-.91-3.86-.91-3.86-1.75-5.43a4 4 0 00-.43 0c-.08.11-.29.14-.38.25-.43.66-.91 1.33-1.28 2a39.55 39.55 0 00-2.32 5.4c-.19.53-.38 1-.72 1.2a4.74 4.74 0 01-.07-1.19c0-.8.19-1.62.24-2.42q.16-3.82 0-7.67a1.4 1.4 0 00-.58-1.11c-.29.14-.36.75-.4 1.25a20.86 20.86 0 000 2.1 6.51 6.51 0 010 1 99.09 99.09 0 00-.3 3.35v.06a14.79 14.79 0 01-1.51 3.79c-.53 1.27-.58.88-1.24 2-.44.66-.82 1.11-1.19 1.66a11.88 11.88 0 01-4.72 3c-1.22.18-2.65.17-3.3-1.32a5.93 5.93 0 01-.69-2.4l.14-.22a.72.72 0 01.32-.25 10.92 10.92 0 004.76-6c.84-2.21.27-3.72-1.81-5.22-.59.18-1.28.38-2 .59a10 10 0 00-2.32 5.6 6.3 6.3 0 01-.18 1.22 7.18 7.18 0 00-.31 1.89c-.53 1-1.24 2.12-1.62 2.81-.18.22-.52.47-.75.7a1.63 1.63 0 01-.85.42c-.42.05-.86-.08-1.33 0A10.71 10.71 0 01124 45q-.6-.73-1.26-1.41a1 1 0 00-1.11-.35 1.94 1.94 0 00-1.63 1.15 21.24 21.24 0 00-1.34 2.18c-.09.11-.23.23-.42.46a14.05 14.05 0 00-.2-1.47c-.27-1.15-.72-1.79-1.3-1.7-.1 0-.19.12-.3.14a2.44 2.44 0 00-1 1 65.46 65.46 0 00-2.44 7 41.82 41.82 0 01-1.46 4 17.23 17.23 0 01-.09-4.06 32.77 32.77 0 00.31-3.83 10.89 10.89 0 01.11-2.21 18.1 18.1 0 00.26-2.32 12.5 12.5 0 01.14-1.62 21.27 21.27 0 00.07-3.29c0-.2-.17-.48-.28-.86l-.41.06c-.64.39-.88 1.31-.75 2.59a6.7 6.7 0 01-.06 2.6 4 4 0 00-.23 1.72c.07 1.69-.27 3-.26 4.62s-.2 3.11-.24 4.71a3 3 0 000 .6c.13.91.27 1.89.46 2.86zm35.82-13.41l.08.58c-.24-.26-.22-.46-.08-.58zm-11.18-7.92c.29.16.58.32 1 .56a1.51 1.51 0 01.52 1.82 10.76 10.76 0 01-1.79 3.64c-.47.46-.86.82-1.25 1.27-.8 0-1.21-.42-1.11-.94.55-2.17 1.04-4.43 2.63-6.35z"/></g></g></svg>