<svg xmlns="http://www.w3.org/2000/svg" viewBox="0 0 80 80"><defs><style>.cls-1{fill:#e50c85}</style></defs><g id="レイヤー_2" data-name="レイヤー 2"><g id="レイヤー_1-2" data-name="レイヤー 1"><path class="cls-1" d="M40 80a40 40 0 1140-40 40 40 0 01-40 40zm0-79a39 39 0 1039 39A39.05 39.05 0 0040 1z"/><path id="パス_1447" data-name="パス 1447" class="cls-1" d="M19 34.09a.92.92 0 01.37 0 .75.75 0 01.27.26L27 43.93v-.49-9.35h1.63V47h-.94a.76.76 0 01-.36-.08.88.88 0 01-.29-.25l-7.37-9.53v9.89H18V34.09zm23 0v1.51h-6.18v4.16h4.94v1.46h-4.94v4.27H42V47h-8V34.09zm3.2 0h1.5a.65.65 0 01.41.11.54.54 0 01.22.33l2.59 8.74c0 .17.08.35.12.55l.12.61c0-.21.09-.42.13-.61a5 5 0 01.16-.55l2.95-8.74a.63.63 0 01.22-.31.6.6 0 01.4-.13h.54a.56.56 0 01.4.12.7.7 0 01.24.32l2.94 8.74a8.77 8.77 0 01.29 1.12c0-.21.06-.41.1-.59s.08-.36.12-.53l2.59-8.74a.66.66 0 01.22-.32.76.76 0 01.41-.13h1.45L59.3 47h-1.67l-3.2-9.67c0-.09-.06-.2-.09-.31s-.07-.23-.1-.35a3.79 3.79 0 01-.18.66L50.85 47h-1.67z"/></g></g></svg>