<svg xmlns="http://www.w3.org/2000/svg" viewBox="0 0 40 50"><g data-name="レイヤー 2"><g data-name="レイヤー 1"><g data-name="グループ 19014"><path data-name="パス 1079" d="M0 0h40v50l-19.6-6.51L0 50z" fill="#e50e86"/><path data-name="パス 1446" d="M9.56 18.61h.21l.07.06.08.09 4.56 5.93v-.27a2.35 2.35 0 010-.26v-5.55h.93v7.88h-.53a.49.49 0 01-.21 0 .5.5 0 01-.17-.15l-4.58-5.98V26.49H9v-7.88zm10.83 2.22a2.42 2.42 0 01.92.17 2.15 2.15 0 01.74.48 2.28 2.28 0 01.49.78 3 3 0 01.17 1.06.55.55 0 01-.05.31.18.18 0 01-.18.08h-3.73a2.91 2.91 0 00.15.92 1.81 1.81 0 00.36.65 1.53 1.53 0 00.55.39 1.94 1.94 0 00.71.13 2.3 2.3 0 00.64-.09 3.66 3.66 0 00.46-.18 3.37 3.37 0 00.32-.19.53.53 0 01.22-.08.22.22 0 01.19.09l.27.36a1.73 1.73 0 01-.43.38 2.73 2.73 0 01-.54.27 3.29 3.29 0 01-.6.15 3.15 3.15 0 01-.61.06 3 3 0 01-1.07-.2 2.44 2.44 0 01-.84-.58 2.5 2.5 0 01-.55-.93 3.67 3.67 0 01-.2-1.27A3.37 3.37 0 0118 22.5a2.51 2.51 0 01.51-.88 2.36 2.36 0 01.82-.58 2.6 2.6 0 011.06-.21zm0 .72a1.54 1.54 0 00-1.12.41 1.86 1.86 0 00-.5 1.14h3a1.89 1.89 0 00-.1-.63 1.33 1.33 0 00-.28-.49 1.12 1.12 0 00-.45-.32 1.71 1.71 0 00-.59-.11zm3.94-.63h.77a.3.3 0 01.2.06.26.26 0 01.11.14l1.07 3.59c0 .13.05.25.08.37s.05.25.06.37c0-.12.07-.24.1-.37l.12-.37L28 21.1a.33.33 0 01.1-.14.34.34 0 01.17-.05h.43a.29.29 0 01.18.05.33.33 0 01.1.14l1.15 3.61c0 .13.07.25.1.38l.09.37c0-.13 0-.25.08-.37a3 3 0 01.09-.38l1.09-3.59a.21.21 0 01.1-.14.28.28 0 01.18-.06h.73l-1.79 5.57h-.78c-.1 0-.16-.06-.2-.19l-1.23-3.78a2.33 2.33 0 01-.07-.25l-.03-.27-.06.26-.06.26-1.26 3.78a.22.22 0 01-.22.19h-.73z" fill="#fff"/></g></g></g></svg>