<svg xmlns="http://www.w3.org/2000/svg" width="160.606" height="32"><g fill="#c1ac03"><path data-name="Path 800" d="M4.113 29.206c2.844.09 5.647-.09 8.449-.178 1.49-.048 2.938-.225 4.433-.406-.046.495-.142.9-.142 1.355s.1.894.142 1.346H0V6.136c.657.045 1.359.138 2.056.138.657 0 1.308-.093 2.057-.138z"/><path data-name="Path 801" d="M40.452 17.235c0-5.085-2.661-7.557-7.56-7.557a13.6 13.6 0 00-7.519 2.471v2.523h.513c.328-.992 2.146-3.11 5.555-3.11 3.5 0 5.466 1.938 5.466 5.272 0 2.157-1.266 2.43-4.953 3.011-4.385.676-8.636 1.351-8.636 6.481 0 3.329 2.9 5.491 6.208 5.491a9.381 9.381 0 006.912-2.837l.416-.408c.38 2.66 2.382 3.02 4.813 2.616a7.707 7.707 0 001.4-.452v-.99c-2.753.585-2.614-.312-2.614-2.068zm-3.738 9.592c0 .307-.929 1.076-1.258 1.39a6.162 6.162 0 01-3.739 1.711c-2.845 0-4.571-1.4-4.571-4.23 0-4.1 4.762-4.545 7.935-5.132l1.633-.309z"/><path data-name="Path 802" d="M63.19 25.381c1.82 2.882 3.919 4.682 7.56 4.682a6.447 6.447 0 006.487-6.568c0-8.373-14.6-4.681-14.6-14.852C62.637 2.834 67.39 0 72.992 0a10.708 10.708 0 016.676 2.163 24.629 24.629 0 00-1.256 3.685h-.469a5.977 5.977 0 00-5.789-3.91c-3.218 0-5.883 2.071-5.883 5.259 0 8.287 14.709 4.953 14.709 14.541C80.98 28.17 75.798 32 69.453 32c-2.3 0-6.03-.942-7.614-2.612a19.97 19.97 0 00.888-4.007z"/><path data-name="Path 803" d="M104.978 17.235c0-5.085-2.662-7.557-7.564-7.557a13.581 13.581 0 00-7.51 2.471v2.523h.512c.328-.992 2.146-3.11 5.552-3.11 3.5 0 5.463 1.938 5.463 5.272 0 2.157-1.262 2.43-4.948 3.011-4.387.676-8.634 1.351-8.634 6.481 0 3.329 2.895 5.491 6.21 5.491a9.374 9.374 0 006.9-2.837l.421-.408c.369 2.66 2.378 3.02 4.8 2.616a7.876 7.876 0 001.406-.452v-.99c-2.762.585-2.615-.312-2.615-2.068zm-3.732 9.592c0 .307-.938 1.076-1.261 1.39a6.184 6.184 0 01-3.73 1.711c-2.849 0-4.577-1.4-4.577-4.23 0-4.1 4.762-4.545 7.934-5.132l1.634-.309z"/><path data-name="Path 804" d="M115.259 9.946c.6.04 1.21.135 1.863.135.61 0 1.169-.1 1.872-.135v4.1a8.409 8.409 0 017.508-4.364c5.416 0 7.521 2.829 7.521 8.776v13c-.7-.041-1.261-.134-1.87-.134-.648 0-1.26.093-1.87.134V19.484c0-4.183-.79-7.465-5.18-7.465-4.9 0-6.109 3.464-6.109 8.994v10.443c-.7-.041-1.262-.134-1.872-.134-.653 0-1.262.093-1.863.134z"/><path data-name="Path 805" d="M157.996 17.235c0-5.085-2.666-7.557-7.567-7.557a13.634 13.634 0 00-7.521 2.471v2.523h.522c.331-.992 2.142-3.11 5.552-3.11 3.5 0 5.461 1.938 5.461 5.272 0 2.157-1.262 2.43-4.945 3.011-4.389.676-8.64 1.351-8.64 6.481 0 3.329 2.9 5.491 6.214 5.491a9.384 9.384 0 006.908-2.837l.418-.408c.37 2.66 2.38 3.02 4.81 2.616a7.449 7.449 0 001.4-.452v-.99c-2.751.585-2.61-.312-2.61-2.068zm-3.737 9.592c0 .307-.938 1.076-1.263 1.39a6.173 6.173 0 01-3.733 1.711c-2.849 0-4.58-1.4-4.58-4.23 0-4.1 4.767-4.545 7.94-5.132l1.635-.309z"/></g></svg>