<svg xmlns="http://www.w3.org/2000/svg" width="326.273" height="42.935"><path data-name="Path 1147" d="M.636 31.327s3.166-9.084 28.12-9c12.94 0 36.976 3.362 58.693 6.468 16.618 2.207 36.188 2.531 36.188 2.531" fill="none" stroke="#333" stroke-linecap="round"/><path data-name="Path 1222" d="M325.636 31.327s-3.166-9.084-28.12-9c-12.94 0-36.977 3.362-58.693 6.468-16.618 2.207-36.188 2.531-36.188 2.531" fill="none" stroke="#333" stroke-linecap="round"/><path data-name="Path 1423" d="M153.436 42.935c7.744 0 8.032-8.7 8.032-12.32 0-1.376-.1-2.784-.224-4.192-.508-5.344-3.52-8.288-7.808-8.288-4.352 0-7.392 3.072-7.84 8.64-.1 1.312-.16 2.56-.16 3.776 0 1.344.064 2.688.192 4.064.508 5.376 3.552 8.32 7.808 8.32zm0-3.36c-2.08 0-3.808-1.888-4.192-5.152a33.149 33.149 0 01-.224-4c0-1.152.064-2.336.16-3.52.32-3.424 2.016-5.476 4.256-5.476 4.384 0 4.384 6.336 4.384 8.8a34.134 34.134 0 01-.288 4.512c-.448 3.044-2.112 4.836-4.096 4.836zm30.432-4.32a6.972 6.972 0 00-7.392-7.136 8.282 8.282 0 00-3.52.8c-.1.032-.128.064-.192.064a.085.085 0 01-.1-.1c0-.672 3.072-4.9 6.848-7.36a1.386 1.386 0 00.7-1.216 2.016 2.016 0 00-1.944-1.88c-2.112 0-6.976 6.176-8.288 8.608a16.923 16.923 0 00-2.208 7.648 7.877 7.877 0 008.1 8.224c4.636-.004 7.996-3.268 7.996-7.652zm-3.332.032a4.392 4.392 0 01-4.768 4.384c-2.368 0-4.608-1.44-4.608-4.16a4.531 4.531 0 014.8-4.48 4.241 4.241 0 014.576 4.256z" fill="#333"/><path data-name="Path 1422" d="M146.822 9.999a.589.589 0 00-.605-.6 5.2 5.2 0 01-2.64-.836c-.077-.044-.1-.077-.1-.1a.049.049 0 01.033-.044 4.066 4.066 0 003.146-4.147A4.139 4.139 0 00142.41.004a4.13 4.13 0 00-4.235 4.268 4.047 4.047 0 002.706 4.015 3.973 3.973 0 01.7.3c.352.231.715.495 1.122.77a5.6 5.6 0 003.311 1.309c.566-.007.808-.339.808-.667zm-4.412-2.618a2.93 2.93 0 01-2.948-3.113 2.954 2.954 0 115.9 0 2.93 2.93 0 01-2.952 3.113zm7.942-3.854a.537.537 0 00-.561-.539.565.565 0 00-.583.583c-.011.3-.011.737-.011 1.188 0 .737.011 1.529.022 1.881a1.834 1.834 0 001.917 1.852 2.227 2.227 0 001.661-.726c.022-.022.033-.033.044-.033s.022.022.033.055c.121.363.275.627.649.627a.567.567 0 00.572-.572.8.8 0 00-.1-.385 2.971 2.971 0 01-.3-1.342c0-.715.022-1.386.055-2.563v-.026a.551.551 0 00-.583-.55.525.525 0 00-.561.561c.022.66.033 1.221.033 1.672s-.011.792-.022 1.034a1.4 1.4 0 01-1.351 1.247c-.462 0-.869-.3-.913-1.012-.011-.176-.022-.55-.022-.979 0-.682.011-1.507.022-1.958zm10.7 4.07a.526.526 0 00.165-.385.6.6 0 00-.581-.568.5.5 0 00-.374.176 1.853 1.853 0 01-1.43.671 1.448 1.448 0 01-1.496-1.464c0-.121.022-.209.088-.209 2.134 0 2.365 0 2.706-.011a.949.949 0 001.045-.957 2.222 2.222 0 00-2.376-1.947 2.672 2.672 0 00-2.607 2.838 2.605 2.605 0 002.629 2.772 2.77 2.77 0 002.234-.912zm-1.243-2.7c-.3.011-.792.011-1.243.011-1.023 0-1.133 0-1.133-.1a1.445 1.445 0 011.375-.957c.99 0 1.221.649 1.221.8a.233.233 0 01-.217.255zm7.1 1.98a1.753 1.753 0 00-1.078-1.507c-.33-.176-.825-.4-1.111-.539a.567.567 0 01-.363-.484c0-.242.209-.451.583-.451a.91.91 0 01.696.273.627.627 0 00.451.22.559.559 0 00.55-.55c0-.429-.682-.924-1.694-.924a1.542 1.542 0 00-1.672 1.474 1.5 1.5 0 00.99 1.375c1.287.583 1.529.792 1.529 1.144 0 .253-.231.561-.814.561a1.083 1.083 0 01-.891-.385.538.538 0 00-.449-.231.557.557 0 00-.561.528c0 .363.561 1.122 1.9 1.122a1.792 1.792 0 001.933-1.617zm4.741-2.827a.481.481 0 00.484-.517.475.475 0 00-.484-.517h-.737c-.11 0-.154-.011-.154-.187 0 0 .022-.418.022-.715a.576.576 0 00-.583-.671.5.5 0 00-.55.5v.033c.011.121.011.253.011.385 0 .253-.011.473-.011.473 0 .154-.011.187-.187.187h-.325a.481.481 0 00-.5.506.5.5 0 00.5.528h.33c.11 0 .176.011.176.154v.165c0 .484-.022 1.584-.022 2.222a1.6 1.6 0 001.628 1.892c.572 0 .935-.187.935-.583a.471.471 0 00-.473-.484c-.033 0-.055.011-.088.011a2.148 2.148 0 01-.253.022c-.616 0-.649-.352-.649-1.21 0-.726.033-1.661.033-2.068 0-.066 0-.121.165-.121zm3.476-2.5a.767.767 0 00.77-.781.775.775 0 00-.77-.748.746.746 0 00-.77.748.73.73 0 00.769.793zm.594 6.358v-.01a104.678 104.678 0 010-4.389v-.022a.591.591 0 00-1.177.033c.011.3.011.737.011 1.232 0 1-.011 2.255-.011 3.168a.548.548 0 00.583.561.556.556 0 00.593-.561zm5.3.572a2.669 2.669 0 002.761-2.783 2.767 2.767 0 10-5.533 0 2.678 2.678 0 002.773 2.795zm0-1.034a1.642 1.642 0 01-1.661-1.749 1.659 1.659 0 113.311 0 1.634 1.634 0 01-1.649 1.761zm8.767.44a.549.549 0 00.572.55.556.556 0 00.572-.583c.011-.231.011-.539.011-.88 0-.814-.022-1.793-.033-2.189a1.8 1.8 0 00-1.859-1.837 2.129 2.129 0 00-1.562.66c-.022.022-.044.044-.055.044s-.011-.011-.011-.022v-.021c0-.033.011-.066.011-.11a.519.519 0 00-.561-.517.544.544 0 00-.594.495v.022a62.378 62.378 0 01-.011 4.389v.022a.543.543 0 00.583.539.519.519 0 00.561-.561 67.388 67.388 0 01-.033-1.815c0-.308 0-.561.011-.759a1.565 1.565 0 011.507-1.331c.462 0 .847.275.891.957.011.176.022.55.022.99 0 .671-.011 1.507-.022 1.958z" fill="#333"/></svg>