<svg xmlns="http://www.w3.org/2000/svg" width="763.277" height="51.787"><path data-name="Path 1413" d="M368.688 51.784c8.954 0 9.287-10.064 9.287-14.245 0-1.591-.111-3.219-.259-4.847-.592-6.179-4.07-9.583-9.028-9.583-5.032 0-8.547 3.552-9.065 9.99a59.933 59.933 0 00-.185 4.366c0 1.554.074 3.108.222 4.7.592 6.219 4.107 9.619 9.028 9.619zm0-3.885c-2.405 0-4.4-2.183-4.847-5.957a38.329 38.329 0 01-.259-4.625c0-1.332.074-2.7.185-4.07.37-3.959 2.331-6.327 4.921-6.327 5.069 0 5.069 7.326 5.069 10.175a39.468 39.468 0 01-.333 5.217c-.518 3.518-2.442 5.59-4.736 5.59zm31.6-2.775c1.073 0 1.961-.037 2.4-.037a1.991 1.991 0 002.15-1.921 1.788 1.788 0 00-1.887-1.813h-.113c-.185 0-1.184.037-2.553.074 0-2.738.111-4.144.111-5.883a1.916 1.916 0 00-1.924-2.109 1.941 1.941 0 00-2 2v.149c.037.481.037 1.147.037 1.961 0 1.11 0 2.516-.037 4-2.183.037-4.4.111-5.661.111-.925 0-1.517 0-1.517-.444 0-.259 0-.3 10.841-14.393a2.287 2.287 0 00.518-1.406 2.2 2.2 0 00-2.183-2.109 1.775 1.775 0 00-1.517.814c-2.664 3.7-8.769 12.247-10.989 15.392a5.093 5.093 0 00-1.036 2.849c0 1.628 1.258 2.849 3.737 2.849.37 0 4.181 0 7.77-.037 0 1.517-.037 3.034-.037 4.329a1.918 1.918 0 002.04 1.954 1.821 1.821 0 001.961-1.887v-.074c-.039-1.665-.113-3.145-.113-4.366z" fill="#333"/><path data-name="Path 1412" d="M362.204 10.908a.643.643 0 00-.66-.66 5.668 5.668 0 01-2.88-.912c-.084-.048-.108-.084-.108-.108a.054.054 0 01.036-.048 4.436 4.436 0 003.432-4.524A4.516 4.516 0 00357.392 0a4.506 4.506 0 00-4.62 4.656 4.415 4.415 0 002.952 4.38 4.335 4.335 0 01.768.324c.384.252.78.54 1.224.84 1.764 1.188 2.676 1.428 3.612 1.428.61 0 .876-.36.876-.72zm-4.812-2.856a3.2 3.2 0 01-3.216-3.4 3.222 3.222 0 116.432 0 3.2 3.2 0 01-3.216 3.4zm8.664-4.2a.586.586 0 00-.612-.588.616.616 0 00-.636.636c-.012.324-.012.8-.012 1.3 0 .8.012 1.668.024 2.052a2 2 0 002.088 2.012 2.43 2.43 0 001.812-.792c.024-.024.036-.036.048-.036s.024.024.036.06c.132.4.3.684.708.684a.619.619 0 00.624-.624.872.872 0 00-.108-.42 3.241 3.241 0 01-.324-1.464c0-.78.024-1.512.06-2.8v-.02a.6.6 0 00-.636-.6.572.572 0 00-.612.612c.024.72.036 1.332.036 1.824s-.012.864-.024 1.128a1.531 1.531 0 01-1.476 1.356c-.5 0-.948-.324-1-1.1-.012-.192-.024-.6-.024-1.068 0-.744.012-1.644.024-2.136zm11.676 4.44a.573.573 0 00.18-.42.654.654 0 00-.636-.624.545.545 0 00-.408.192 2.021 2.021 0 01-1.56.732 1.579 1.579 0 01-1.632-1.6c0-.132.024-.228.1-.228 2.328 0 2.58 0 2.952-.012a1.035 1.035 0 001.14-1.044 2.424 2.424 0 00-2.592-2.124 2.915 2.915 0 00-2.844 3.1 2.842 2.842 0 002.864 3.02 3.022 3.022 0 002.436-.992zm-1.356-2.94c-.324.012-.864.012-1.356.012-1.116 0-1.236 0-1.236-.108a1.576 1.576 0 011.5-1.044c1.08 0 1.332.708 1.332.876a.254.254 0 01-.24.264zm7.74 2.16a1.913 1.913 0 00-1.178-1.644c-.36-.192-.9-.432-1.212-.588a.618.618 0 01-.4-.528c0-.264.228-.492.636-.492a.993.993 0 01.756.288.684.684 0 00.492.24.61.61 0 00.6-.6c0-.468-.744-1.008-1.848-1.008a1.682 1.682 0 00-1.818 1.604 1.635 1.635 0 001.08 1.5c1.4.636 1.668.864 1.668 1.248 0 .276-.252.612-.888.612a1.182 1.182 0 01-.972-.42.587.587 0 00-.48-.252.608.608 0 00-.612.576c0 .4.612 1.224 2.076 1.224a1.954 1.954 0 002.1-1.76zm5.172-3.084a.525.525 0 00.528-.564.519.519 0 00-.528-.564h-.8c-.12 0-.168-.012-.168-.2 0 0 .024-.456.024-.78a.629.629 0 00-.636-.732.545.545 0 00-.6.54v.036c.012.132.012.276.012.42 0 .276-.012.516-.012.516 0 .168-.012.2-.2.2h-.348a.525.525 0 00-.54.552.545.545 0 00.54.576h.36c.12 0 .192.012.192.168v.18c0 .528-.024 1.728-.024 2.424a1.751 1.751 0 001.776 2.064c.624 0 1.02-.2 1.02-.636a.514.514 0 00-.516-.528c-.036 0-.06.012-.1.012a2.343 2.343 0 01-.276.024c-.672 0-.708-.384-.708-1.32 0-.792.036-1.812.036-2.256 0-.072 0-.132.18-.132zm3.792-2.724a.837.837 0 00.84-.852.846.846 0 00-.84-.816.814.814 0 00-.84.816.8.8 0 00.84.852zm.648 6.936v-.024a114.194 114.194 0 010-4.788v-.024a.644.644 0 00-1.284.036c.012.324.012.8.012 1.344 0 1.092-.012 2.46-.012 3.456a.6.6 0 00.636.612.607.607 0 00.648-.612zm5.784.624a2.911 2.911 0 003.012-3.036 3.018 3.018 0 10-6.036 0 2.921 2.921 0 003.024 3.036zm0-1.128a1.791 1.791 0 01-1.812-1.908 1.81 1.81 0 113.612 0 1.782 1.782 0 01-1.8 1.908zm9.564.48a.6.6 0 00.624.6.607.607 0 00.624-.636c.012-.252.012-.588.012-.96 0-.888-.024-1.956-.036-2.388a1.962 1.962 0 00-2.028-2 2.323 2.323 0 00-1.7.72c-.024.024-.048.048-.06.048s-.012-.012-.012-.024v-.04c0-.036.012-.072.012-.12a.566.566 0 00-.612-.564.594.594 0 00-.648.54v.024a67.853 67.853 0 01-.012 4.788v.024a.592.592 0 00.636.588.567.567 0 00.612-.612 73.514 73.514 0 01-.036-1.98c0-.336 0-.612.012-.828a1.708 1.708 0 011.64-1.452c.5 0 .924.3.972 1.044.012.192.024.6.024 1.08 0 .732-.012 1.644-.024 2.136z" fill="#333"/><path data-name="Path 1139" d="M762.637 40.084s-7.928-22.223-70.414-22.016c-32.4 0-92.592 8.224-146.971 15.824-41.613 5.4-112.616 6.192-112.616 6.192" fill="none" stroke="#333" stroke-linecap="round"/><path data-name="Path 1147" d="M.638 40.084s7.928-22.223 70.414-22.016c32.4 0 92.592 8.224 146.971 15.824 41.613 5.4 112.616 6.192 112.616 6.192" fill="none" stroke="#333" stroke-linecap="round"/></svg>