<svg width="7" height="11" viewBox="0 0 7 11" fill="none" xmlns="http://www.w3.org/2000/svg">
<path d="M6.91604 6.42621C6.91604 7.62088 6.60804 8.52621 5.99204 9.14221C5.38537 9.76755 4.50337 10.0802 3.34604 10.0802C2.70204 10.0802 2.11871 9.98688 1.59604 9.80022C1.08271 9.61355 0.592708 9.29155 0.126041 8.83421L0.910041 7.93821C1.25537 8.31155 1.61937 8.59155 2.00204 8.77821C2.39404 8.97421 2.84204 9.07222 3.34604 9.07222C3.83137 9.07222 4.23271 8.99755 4.55004 8.84821C4.87671 8.70821 5.13337 8.51221 5.32004 8.26021C5.50671 8.01755 5.63737 7.73755 5.71204 7.42021C5.78671 7.10288 5.82404 6.77155 5.82404 6.42621V5.58621H5.79604C5.53471 6.00621 5.19404 6.31421 4.77404 6.51021C4.35404 6.70621 3.92471 6.80421 3.48604 6.80421C2.97271 6.80421 2.50137 6.72021 2.07204 6.55221C1.64271 6.38421 1.27404 6.15088 0.966041 5.85221C0.658041 5.55355 0.420041 5.19888 0.252041 4.78821C0.0840411 4.37755 4.10452e-05 3.92955 4.10452e-05 3.44421C4.10452e-05 2.91221 0.0840411 2.43155 0.252041 2.00221C0.420041 1.57288 0.653374 1.21355 0.952041 0.924214C1.26004 0.625548 1.62871 0.396881 2.05804 0.238214C2.48737 0.0795479 2.96337 0.000214577 3.48604 0.000214577C3.71004 0.000214577 3.93404 0.0282145 4.15804 0.0842143C4.38204 0.130881 4.59671 0.210215 4.80204 0.322215C5.01671 0.424881 5.20804 0.560215 5.37604 0.728214C5.54404 0.886881 5.68404 1.07355 5.79604 1.28821H5.82404V0.168214H6.91604V6.42621ZM1.17604 3.44421C1.17604 3.78021 1.23671 4.09288 1.35804 4.38221C1.47937 4.66221 1.64271 4.90955 1.84804 5.12421C2.06271 5.32955 2.31004 5.49288 2.59004 5.61421C2.87004 5.73555 3.16871 5.79621 3.48604 5.79621C3.85937 5.79621 4.19071 5.73088 4.48004 5.60021C4.76937 5.46955 5.01204 5.29688 5.20804 5.08221C5.41337 4.85821 5.56737 4.60621 5.67004 4.32621C5.77271 4.03688 5.82404 3.73355 5.82404 3.41621C5.82404 3.06155 5.76804 2.73955 5.65604 2.45021C5.54404 2.15155 5.38537 1.89488 5.18004 1.68021C4.97471 1.46555 4.72737 1.30221 4.43804 1.19021C4.14871 1.06888 3.83137 1.00821 3.48604 1.00821C3.14071 1.00821 2.82337 1.07355 2.53404 1.20421C2.25404 1.32555 2.01137 1.49821 1.80604 1.72221C1.61004 1.93688 1.45604 2.19355 1.34404 2.49221C1.23204 2.78155 1.17604 3.09888 1.17604 3.44421Z" fill="#444444"/>
</svg>
