<svg width="43" height="48" viewBox="0 0 43 48" fill="none" xmlns="http://www.w3.org/2000/svg">
<path fill-rule="evenodd" clip-rule="evenodd" d="M25.1886 35.168L25.2021 2.09998H31.4085C32.0074 5.24456 33.9235 7.94107 36.5795 9.62537C36.5795 9.62537 36.5795 9.62537 36.5795 9.62807C38.4279 10.8022 40.634 11.4851 43 11.4851V13.3233V19.7366C38.6041 19.7366 34.5306 18.3681 31.2052 16.0441V32.8116C31.2052 41.1872 24.2048 48 15.6026 48C12.2772 48 9.1957 46.9797 6.66167 45.2468C6.66167 45.2468 6.65896 45.2441 6.65625 45.2414C2.63431 42.4909 0 37.9455 0 32.8089C0 24.4332 7.00044 17.6204 15.6026 17.6204C16.3154 17.6204 17.0173 17.6771 17.7057 17.7689V19.7231V26.1931C17.039 25.9907 16.3371 25.8719 15.6026 25.8719C11.6728 25.8719 8.4775 28.9841 8.4775 32.8089C8.4775 35.473 10.0304 37.7862 12.2989 38.9469C13.2881 39.4543 14.4101 39.7431 15.6026 39.7431C19.4403 39.7431 22.5732 36.7713 22.7142 33.068L22.7277 0H31.2052C31.2052 0.71529 31.2757 1.41438 31.4058 2.09458H25.1994L25.1859 35.1626L25.1886 35.168Z" fill="white"/>
</svg>
