<svg width="48" height="48" viewBox="0 0 48 48" fill="none" xmlns="http://www.w3.org/2000/svg">
<path d="M14.0603 0.166168C11.5067 0.286696 9.76253 0.695704 8.23838 1.29292C6.66062 1.90799 5.3232 2.7323 3.99269 4.06823C2.66064 5.40494 1.84262 6.74476 1.23221 8.3241C0.64123 9.85209 0.240766 11.5971 0.127966 14.1523C0.0160781 16.7122 -0.00960192 17.5287 0.00287808 24.0459C0.0153101 30.5623 0.0440621 31.3803 0.166126 33.941C0.28819 36.4939 0.69571 38.2373 1.29288 39.7622C1.90872 41.3399 2.73216 42.6767 4.06886 44.0079C5.4048 45.3392 6.74539 46.1565 8.32545 46.7677C9.8519 47.3579 11.5976 47.7599 14.152 47.8719C16.7119 47.9846 17.5291 48.0095 24.0447 47.9971C30.5633 47.9846 31.3806 47.9558 33.9405 47.8345C36.4941 47.7125 38.2367 47.3035 39.7624 46.7078C41.3401 46.0904 42.6776 45.2684 44.0081 43.9317C45.3385 42.5958 46.1566 41.2551 46.767 39.6751C47.358 38.1486 47.76 36.4029 47.8712 33.85C47.9832 31.2885 48.0096 30.4705 47.9972 23.9541C47.9847 17.437 47.9552 16.6205 47.8339 14.0614C47.7126 11.5061 47.3036 9.76348 46.7072 8.2378C46.0906 6.66004 45.2679 5.3241 43.932 3.99206C42.596 2.66154 41.2554 1.84194 39.6754 1.23306C38.1481 0.642088 36.4032 0.239272 33.8488 0.128824C31.2888 0.0153516 30.4716 -0.00956045 23.9537 0.00291955C17.4374 0.0153516 16.6202 0.0433356 14.0603 0.166216M14.3403 43.5523C12.0005 43.4504 10.7299 43.0616 9.8831 42.7358C8.76177 42.3019 7.96166 41.7816 7.1195 40.9457C6.27893 40.1067 5.75712 39.3088 5.31936 38.1898C4.99041 37.343 4.59461 36.074 4.48497 33.7341C4.36598 31.2046 4.33881 30.4456 4.3271 24.0373C4.31467 17.6305 4.33795 16.8716 4.4484 14.3397C4.54867 12.0014 4.93987 10.7292 5.26488 9.88319C5.69875 8.76033 6.21744 7.9617 7.05489 7.11959C7.89389 6.27743 8.69174 5.75721 9.81149 5.3194C10.6575 4.98892 11.9266 4.59618 14.2656 4.48502C16.7967 4.36526 17.5548 4.33958 23.9615 4.32714C30.3697 4.31466 31.1286 4.33727 33.6605 4.44844C35.9988 4.5503 37.2709 4.93756 38.1162 5.26492C39.2383 5.69879 40.0384 6.21594 40.8798 7.05498C41.7211 7.89402 42.2429 8.6903 42.6807 9.81239C43.0112 10.6561 43.4039 11.9267 43.5143 14.265C43.6348 16.7962 43.662 17.5551 43.6737 23.9618C43.6861 30.3701 43.6628 31.129 43.5516 33.6594C43.4497 35.9993 43.0617 37.2706 42.7351 38.1182C42.3013 39.2388 41.7825 40.039 40.9443 40.8811C40.1061 41.7202 39.3083 42.2435 38.1877 42.6813C37.3432 43.011 36.0726 43.4045 33.7351 43.5157C31.2041 43.6346 30.4459 43.6619 24.0369 43.6736C17.6303 43.686 16.8721 43.6619 14.3402 43.5523M33.9055 11.1709C33.9086 12.7604 35.201 14.0473 36.7904 14.0442C38.3806 14.0411 39.6675 12.7495 39.6652 11.16C39.6621 9.57062 38.3697 8.28287 36.7795 8.28599C35.1893 8.28911 33.9024 9.58146 33.9055 11.1709ZM11.677 24.0233C11.6902 30.8298 17.2182 36.3353 24.0229 36.322C30.8285 36.3088 36.3371 30.7823 36.3239 23.9759C36.3106 17.1718 30.7819 11.6632 23.9755 11.6764C17.1707 11.6896 11.6638 17.2185 11.677 24.0233ZM15.9996 24.0148C15.9919 19.5971 19.5673 16.0085 23.9841 16.0007C28.4016 15.9922 31.991 19.566 31.9996 23.9844C32.0082 28.4028 28.4328 31.9907 24.0144 31.9993C19.5976 32.0078 16.0082 28.4332 15.9996 24.0148Z" fill="white"/>
</svg>
