<svg width="352" height="113" viewBox="0 0 352 113" fill="none" xmlns="http://www.w3.org/2000/svg">
<rect width="352" height="113" fill="#FAFAFA"/>
<path d="M90.0048 66C85.5895 66 82 69.5895 82 74C82 78.4105 85.5895 82 90.0048 82C94.42 82 98.0048 78.4105 98.0048 74C98.0048 69.5895 94.4153 66 90.0048 66Z" fill="#FF798B"/>
<path d="M267.511 75.3415H266.16C265.601 75.3415 265.148 74.8833 265.148 74.3248C265.148 73.7663 265.601 73.3081 266.16 73.3081H267.511C268.069 73.3081 268.523 73.7663 268.523 74.3248C268.523 74.8833 268.069 75.3415 267.511 75.3415ZM260.747 75.3415H259.396C258.838 75.3415 258.384 74.8833 258.384 74.3248C258.384 73.7663 258.838 73.3081 259.396 73.3081H260.747C261.305 73.3081 261.759 73.7663 261.759 74.3248C261.759 74.8833 261.305 75.3415 260.747 75.3415ZM253.983 75.3415H252.632C252.074 75.3415 251.62 74.8833 251.62 74.3248C251.62 73.7663 252.074 73.3081 252.632 73.3081H253.983C254.542 73.3081 254.995 73.7663 254.995 74.3248C254.995 74.8833 254.542 75.3415 253.983 75.3415ZM247.22 75.3415H245.869C245.31 75.3415 244.857 74.8833 244.857 74.3248C244.857 73.7663 245.31 73.3081 245.869 73.3081H247.22C247.778 73.3081 248.231 73.7663 248.231 74.3248C248.231 74.8833 247.778 75.3415 247.22 75.3415ZM240.456 75.3415H239.105C238.547 75.3415 238.093 74.8833 238.093 74.3248C238.093 73.7663 238.547 73.3081 239.105 73.3081H240.456C241.014 73.3081 241.468 73.7663 241.468 74.3248C241.468 74.8833 241.014 75.3415 240.456 75.3415ZM233.692 75.3415H232.341C231.783 75.3415 231.329 74.8833 231.329 74.3248C231.329 73.7663 231.783 73.3081 232.341 73.3081H233.692C234.251 73.3081 234.704 73.7663 234.704 74.3248C234.704 74.8833 234.251 75.3415 233.692 75.3415ZM226.928 75.3415H225.578C225.019 75.3415 224.566 74.8833 224.566 74.3248C224.566 73.7663 225.019 73.3081 225.578 73.3081H226.928C227.487 73.3081 227.94 73.7663 227.94 74.3248C227.94 74.8833 227.487 75.3415 226.928 75.3415ZM220.165 75.3415H218.814C218.255 75.3415 217.802 74.8833 217.802 74.3248C217.802 73.7663 218.255 73.3081 218.814 73.3081H220.165C220.723 73.3081 221.177 73.7663 221.177 74.3248C221.177 74.8833 220.723 75.3415 220.165 75.3415ZM213.401 75.3415H212.05C211.492 75.3415 211.038 74.8833 211.038 74.3248C211.038 73.7663 211.492 73.3081 212.05 73.3081H213.401C213.959 73.3081 214.413 73.7663 214.413 74.3248C214.413 74.8833 213.959 75.3415 213.401 75.3415ZM206.637 75.3415H205.286C204.728 75.3415 204.274 74.8833 204.274 74.3248C204.274 73.7663 204.728 73.3081 205.286 73.3081H206.637C207.196 73.3081 207.649 73.7663 207.649 74.3248C207.649 74.8833 207.196 75.3415 206.637 75.3415ZM199.873 75.3415H198.523C197.964 75.3415 197.511 74.8833 197.511 74.3248C197.511 73.7663 197.964 73.3081 198.523 73.3081H199.873C200.432 73.3081 200.885 73.7663 200.885 74.3248C200.885 74.8833 200.432 75.3415 199.873 75.3415ZM193.11 75.3415H191.759C191.2 75.3415 190.747 74.8833 190.747 74.3248C190.747 73.7663 191.2 73.3081 191.759 73.3081H193.11C193.668 73.3081 194.122 73.7663 194.122 74.3248C194.122 74.8833 193.668 75.3415 193.11 75.3415ZM186.346 75.3415H184.995C184.437 75.3415 183.983 74.8833 183.983 74.3248C183.983 73.7663 184.437 73.3081 184.995 73.3081H186.346C186.905 73.3081 187.358 73.7663 187.358 74.3248C187.358 74.8833 186.905 75.3415 186.346 75.3415ZM179.582 75.3415H178.231C177.673 75.3415 177.22 74.8833 177.22 74.3248C177.22 73.7663 177.673 73.3081 178.231 73.3081H179.582C180.141 73.3081 180.594 73.7663 180.594 74.3248C180.594 74.8833 180.141 75.3415 179.582 75.3415ZM172.819 75.3415H171.468C170.909 75.3415 170.456 74.8833 170.456 74.3248C170.456 73.7663 170.909 73.3081 171.468 73.3081H172.819C173.377 73.3081 173.831 73.7663 173.831 74.3248C173.831 74.8833 173.377 75.3415 172.819 75.3415ZM166.055 75.3415H164.704C164.146 75.3415 163.692 74.8833 163.692 74.3248C163.692 73.7663 164.146 73.3081 164.704 73.3081H166.055C166.613 73.3081 167.067 73.7663 167.067 74.3248C167.067 74.8833 166.613 75.3415 166.055 75.3415ZM159.296 75.3415H157.945C157.387 75.3415 156.933 74.8833 156.933 74.3248C156.933 73.7663 157.387 73.3081 157.945 73.3081H159.296C159.854 73.3081 160.308 73.7663 160.308 74.3248C160.308 74.8833 159.854 75.3415 159.296 75.3415ZM152.532 75.3415H151.181C150.623 75.3415 150.169 74.8833 150.169 74.3248C150.169 73.7663 150.623 73.3081 151.181 73.3081H152.532C153.091 73.3081 153.544 73.7663 153.544 74.3248C153.544 74.8833 153.091 75.3415 152.532 75.3415ZM145.768 75.3415H144.418C143.859 75.3415 143.406 74.8833 143.406 74.3248C143.406 73.7663 143.859 73.3081 144.418 73.3081H145.768C146.327 73.3081 146.78 73.7663 146.78 74.3248C146.78 74.8833 146.327 75.3415 145.768 75.3415ZM139.005 75.3415H137.654C137.095 75.3415 136.642 74.8833 136.642 74.3248C136.642 73.7663 137.095 73.3081 137.654 73.3081H139.005C139.563 73.3081 140.017 73.7663 140.017 74.3248C140.017 74.8833 139.563 75.3415 139.005 75.3415ZM132.241 75.3415H130.89C130.332 75.3415 129.878 74.8833 129.878 74.3248C129.878 73.7663 130.332 73.3081 130.89 73.3081H132.241C132.8 73.3081 133.253 73.7663 133.253 74.3248C133.253 74.8833 132.8 75.3415 132.241 75.3415ZM125.477 75.3415H124.126C123.568 75.3415 123.115 74.8833 123.115 74.3248C123.115 73.7663 123.568 73.3081 124.126 73.3081H125.477C126.036 73.3081 126.489 73.7663 126.489 74.3248C126.489 74.8833 126.036 75.3415 125.477 75.3415ZM118.714 75.3415H117.363C116.804 75.3415 116.351 74.8833 116.351 74.3248C116.351 73.7663 116.804 73.3081 117.363 73.3081H118.714C119.272 73.3081 119.726 73.7663 119.726 74.3248C119.726 74.8833 119.272 75.3415 118.714 75.3415ZM111.95 75.3415H110.599C110.041 75.3415 109.587 74.8833 109.587 74.3248C109.587 73.7663 110.041 73.3081 110.599 73.3081H111.95C112.508 73.3081 112.962 73.7663 112.962 74.3248C112.962 74.8833 112.508 75.3415 111.95 75.3415ZM105.186 75.3415H103.835C103.277 75.3415 102.823 74.8833 102.823 74.3248C102.823 73.7663 103.277 73.3081 103.835 73.3081H105.186C105.745 73.3081 106.198 73.7663 106.198 74.3248C106.198 74.8833 105.745 75.3415 105.186 75.3415ZM98.4224 75.3415H97.0716C96.5131 75.3415 96.0597 74.8833 96.0597 74.3248C96.0597 73.7663 96.5131 73.3081 97.0716 73.3081H98.4224C98.9809 73.3081 99.4344 73.7663 99.4344 74.3248C99.4344 74.8833 98.9809 75.3415 98.4224 75.3415ZM91.6587 75.3415H90.3079C89.7494 75.3415 89.2959 74.8833 89.2959 74.3248C89.2959 73.7663 89.7494 73.3081 90.3079 73.3081H91.6587C92.2172 73.3081 92.6706 73.7663 92.6706 74.3248C92.6706 74.8833 92.2172 75.3415 91.6587 75.3415ZM84.895 75.3415H83.5442C82.9857 75.3415 82.5322 74.8833 82.5322 74.3248C82.5322 73.7663 82.9857 73.3081 83.5442 73.3081H84.895C85.4535 73.3081 85.9069 73.7663 85.9069 74.3248C85.9069 74.8833 85.4535 75.3415 84.895 75.3415ZM78.1313 75.3415H76.7804C76.222 75.3415 75.7685 74.8833 75.7685 74.3248C75.7685 73.7663 76.222 73.3081 76.7804 73.3081H78.1313C78.6897 73.3081 79.1432 73.7663 79.1432 74.3248C79.1432 74.8833 78.6897 75.3415 78.1313 75.3415ZM71.3675 75.3415H70.0119C69.4535 75.3415 69 74.8833 69 74.3248C69 73.7663 69.4535 73.3081 70.0119 73.3081H71.3628C71.9212 73.3081 72.3747 73.7663 72.3747 74.3248C72.3747 74.8833 71.926 75.3415 71.3675 75.3415Z" fill="#444444"/>
<path d="M280.137 75.3415H281.488C282.047 75.3415 282.5 74.8833 282.5 74.3248C282.5 73.7663 282.047 73.3081 281.488 73.3081H280.137C279.579 73.3081 279.125 73.7663 279.125 74.3248C279.125 74.8833 279.579 75.3415 280.137 75.3415Z" fill="#444444"/>
<path d="M273.374 75.3415H274.724C275.283 75.3415 275.736 74.8833 275.736 74.3248C275.736 73.7663 275.283 73.3081 274.724 73.3081H273.374C272.815 73.3081 272.362 73.7663 272.362 74.3248C272.362 74.8833 272.815 75.3415 273.374 75.3415Z" fill="#444444"/>
<path d="M90.0119 81.7303C89.4535 81.7303 89 81.2721 89 80.7136V68.0167C89 67.4582 89.4535 67 90.0119 67C90.5704 67 91.0239 67.4582 91.0239 68.0167V80.7136C91.0239 81.2721 90.5704 81.7303 90.0119 81.7303Z" fill="#444444"/>
<path d="M135.012 81.7303C134.453 81.7303 134 81.2721 134 80.7136V68.0167C134 67.4582 134.453 67 135.012 67C135.57 67 136.024 67.4582 136.024 68.0167V80.7136C136.024 81.2721 135.57 81.7303 135.012 81.7303Z" fill="#444444"/>
<path d="M180.012 81.7303C179.453 81.7303 179 81.2721 179 80.7136V68.0167C179 67.4582 179.453 67 180.012 67C180.57 67 181.024 67.4582 181.024 68.0167V80.7136C181.024 81.2721 180.57 81.7303 180.012 81.7303Z" fill="#444444"/>
<path d="M225.012 81.7303C224.453 81.7303 224 81.2721 224 80.7136V68.0167C224 67.4582 224.453 67 225.012 67C225.57 67 226.024 67.4582 226.024 68.0167V80.7136C226.024 81.2721 225.57 81.7303 225.012 81.7303Z" fill="#444444"/>
<path d="M270.012 81.7303C269.453 81.7303 269 81.2721 269 80.7136V68.0167C269 67.4582 269.453 67 270.012 67C270.57 67 271.024 67.4582 271.024 68.0167V80.7136C271.024 81.2721 270.57 81.7303 270.012 81.7303Z" fill="#444444"/>
<path d="M37.084 75.472H42.88V76.382H37.084V75.472ZM36.216 78.818H43.51V79.756H36.216V78.818ZM36.832 67.94H42.236V68.864H36.832V67.94ZM39.45 73.652H40.486V79.378H39.45V73.652ZM41.942 67.94H42.138L42.334 67.898L42.992 68.164C42.6653 69.2653 42.194 70.2173 41.578 71.02C40.962 71.8133 40.2433 72.4807 39.422 73.022C38.61 73.5633 37.7467 73.988 36.832 74.296C36.776 74.1653 36.692 74.016 36.58 73.848C36.4773 73.68 36.3747 73.5447 36.272 73.442C36.8973 73.2647 37.504 73.0173 38.092 72.7C38.6893 72.3733 39.24 71.986 39.744 71.538C40.248 71.09 40.6913 70.5813 41.074 70.012C41.4567 69.4427 41.746 68.8127 41.942 68.122V67.94ZM38.33 68.836C38.638 69.5733 39.044 70.2453 39.548 70.852C40.0613 71.4587 40.6633 71.9813 41.354 72.42C42.054 72.8493 42.824 73.1713 43.664 73.386C43.5987 73.4513 43.524 73.54 43.44 73.652C43.356 73.7547 43.2767 73.8573 43.202 73.96C43.1273 74.0627 43.0667 74.1653 43.02 74.268C42.1427 73.988 41.3447 73.6053 40.626 73.12C39.9167 72.6253 39.296 72.042 38.764 71.37C38.232 70.6887 37.7933 69.928 37.448 69.088L38.33 68.836ZM30.714 68.738H36.538V69.676H30.714V68.738ZM30.546 76.746H36.664V77.684H30.546V76.746ZM33.15 67.226H34.102V71.09H33.15V67.226ZM33.234 71.132H34.004V75.206H34.102V80.148H33.15V75.206H33.234V71.132ZM31.75 73.54V74.828H35.516V73.54H31.75ZM31.75 71.524V72.784H35.516V71.524H31.75ZM30.952 70.74H36.342V75.612H30.952V70.74ZM54.066 68.164C54.038 68.276 54.01 68.402 53.982 68.542C53.954 68.6727 53.926 68.8033 53.898 68.934C53.8793 69.0647 53.856 69.172 53.828 69.256C53.6973 69.844 53.5387 70.4507 53.352 71.076C53.1747 71.7013 52.974 72.322 52.75 72.938C52.526 73.554 52.2833 74.128 52.022 74.66C51.77 75.192 51.504 75.654 51.224 76.046C50.8693 76.5313 50.51 76.97 50.146 77.362C49.7913 77.7447 49.4273 78.0433 49.054 78.258C48.6807 78.4727 48.2793 78.58 47.85 78.58C47.5047 78.58 47.1827 78.482 46.884 78.286C46.5853 78.09 46.3473 77.8053 46.17 77.432C45.9927 77.0587 45.904 76.6013 45.904 76.06C45.904 75.472 46.0113 74.884 46.226 74.296C46.45 73.708 46.7533 73.1667 47.136 72.672C47.528 72.1773 47.9667 71.7667 48.452 71.44C49.1427 70.964 49.838 70.628 50.538 70.432C51.238 70.236 51.9427 70.138 52.652 70.138C53.5667 70.138 54.3787 70.3293 55.088 70.712C55.8067 71.0947 56.3667 71.6313 56.768 72.322C57.1787 73.0033 57.384 73.8013 57.384 74.716C57.384 75.64 57.174 76.4473 56.754 77.138C56.3433 77.8193 55.76 78.37 55.004 78.79C54.2573 79.2007 53.3847 79.476 52.386 79.616L51.728 78.622C52.4653 78.5567 53.114 78.4167 53.674 78.202C54.2433 77.9873 54.7193 77.7073 55.102 77.362C55.4847 77.0167 55.774 76.6153 55.97 76.158C56.1753 75.7007 56.278 75.206 56.278 74.674C56.278 73.9833 56.124 73.372 55.816 72.84C55.508 72.2987 55.0693 71.874 54.5 71.566C53.94 71.258 53.2867 71.104 52.54 71.104C51.8587 71.104 51.21 71.216 50.594 71.44C49.9873 71.6547 49.4087 71.9627 48.858 72.364C48.466 72.644 48.1253 72.9893 47.836 73.4C47.5467 73.8107 47.318 74.24 47.15 74.688C46.9913 75.1267 46.912 75.556 46.912 75.976C46.912 76.4427 47.0053 76.8113 47.192 77.082C47.388 77.3433 47.6447 77.474 47.962 77.474C48.186 77.474 48.4147 77.4087 48.648 77.278C48.8813 77.138 49.11 76.956 49.334 76.732C49.558 76.508 49.7727 76.2607 49.978 75.99C50.1927 75.71 50.384 75.43 50.552 75.15C50.7853 74.786 51.014 74.366 51.238 73.89C51.462 73.414 51.672 72.9053 51.868 72.364C52.0733 71.8133 52.2507 71.2627 52.4 70.712C52.5587 70.152 52.6847 69.62 52.778 69.116C52.806 68.976 52.8247 68.8033 52.834 68.598C52.8527 68.3927 52.862 68.2107 52.862 68.052L54.066 68.164ZM48.34 68.794C48.3773 68.99 48.4193 69.2 48.466 69.424C48.522 69.6387 48.5733 69.844 48.62 70.04C48.7133 70.376 48.83 70.754 48.97 71.174C49.11 71.594 49.2547 72.014 49.404 72.434C49.5627 72.854 49.726 73.2507 49.894 73.624C50.062 73.988 50.2207 74.2913 50.37 74.534C50.6127 74.9447 50.888 75.3647 51.196 75.794C51.504 76.2233 51.826 76.5967 52.162 76.914L51.28 77.642C51 77.3247 50.7293 76.9887 50.468 76.634C50.2067 76.2793 49.9453 75.8733 49.684 75.416C49.5067 75.1453 49.3293 74.8187 49.152 74.436C48.9747 74.044 48.7927 73.624 48.606 73.176C48.4287 72.728 48.256 72.2707 48.088 71.804C47.92 71.328 47.7707 70.8707 47.64 70.432C47.5747 70.208 47.5 69.9887 47.416 69.774C47.3413 69.55 47.262 69.3493 47.178 69.172L48.34 68.794Z" fill="#444444"/>
<path d="M293.728 78.818H306.286V79.672H293.728V78.818ZM293.812 69.718H306.216V70.586H293.812V69.718ZM294.778 76.76H305.404V77.6H294.778V76.76ZM299.426 68.304H300.476V79.224H299.426V68.304ZM304.298 67.324L304.858 68.136C304.233 68.248 303.523 68.3507 302.73 68.444C301.946 68.528 301.12 68.6027 300.252 68.668C299.384 68.724 298.511 68.7753 297.634 68.822C296.757 68.8593 295.907 68.8827 295.086 68.892C295.086 68.7707 295.058 68.6307 295.002 68.472C294.955 68.304 294.909 68.1687 294.862 68.066C295.674 68.038 296.514 68.0053 297.382 67.968C298.259 67.9213 299.118 67.87 299.958 67.814C300.807 67.7487 301.601 67.674 302.338 67.59C303.085 67.506 303.738 67.4173 304.298 67.324ZM296.248 73.96V75.024H303.808V73.96H296.248ZM296.248 72.196V73.246H303.808V72.196H296.248ZM295.226 71.44H304.872V75.794H295.226V71.44ZM317.066 68.164C317.038 68.276 317.01 68.402 316.982 68.542C316.954 68.6727 316.926 68.8033 316.898 68.934C316.879 69.0647 316.856 69.172 316.828 69.256C316.697 69.844 316.539 70.4507 316.352 71.076C316.175 71.7013 315.974 72.322 315.75 72.938C315.526 73.554 315.283 74.128 315.022 74.66C314.77 75.192 314.504 75.654 314.224 76.046C313.869 76.5313 313.51 76.97 313.146 77.362C312.791 77.7447 312.427 78.0433 312.054 78.258C311.681 78.4727 311.279 78.58 310.85 78.58C310.505 78.58 310.183 78.482 309.884 78.286C309.585 78.09 309.347 77.8053 309.17 77.432C308.993 77.0587 308.904 76.6013 308.904 76.06C308.904 75.472 309.011 74.884 309.226 74.296C309.45 73.708 309.753 73.1667 310.136 72.672C310.528 72.1773 310.967 71.7667 311.452 71.44C312.143 70.964 312.838 70.628 313.538 70.432C314.238 70.236 314.943 70.138 315.652 70.138C316.567 70.138 317.379 70.3293 318.088 70.712C318.807 71.0947 319.367 71.6313 319.768 72.322C320.179 73.0033 320.384 73.8013 320.384 74.716C320.384 75.64 320.174 76.4473 319.754 77.138C319.343 77.8193 318.76 78.37 318.004 78.79C317.257 79.2007 316.385 79.476 315.386 79.616L314.728 78.622C315.465 78.5567 316.114 78.4167 316.674 78.202C317.243 77.9873 317.719 77.7073 318.102 77.362C318.485 77.0167 318.774 76.6153 318.97 76.158C319.175 75.7007 319.278 75.206 319.278 74.674C319.278 73.9833 319.124 73.372 318.816 72.84C318.508 72.2987 318.069 71.874 317.5 71.566C316.94 71.258 316.287 71.104 315.54 71.104C314.859 71.104 314.21 71.216 313.594 71.44C312.987 71.6547 312.409 71.9627 311.858 72.364C311.466 72.644 311.125 72.9893 310.836 73.4C310.547 73.8107 310.318 74.24 310.15 74.688C309.991 75.1267 309.912 75.556 309.912 75.976C309.912 76.4427 310.005 76.8113 310.192 77.082C310.388 77.3433 310.645 77.474 310.962 77.474C311.186 77.474 311.415 77.4087 311.648 77.278C311.881 77.138 312.11 76.956 312.334 76.732C312.558 76.508 312.773 76.2607 312.978 75.99C313.193 75.71 313.384 75.43 313.552 75.15C313.785 74.786 314.014 74.366 314.238 73.89C314.462 73.414 314.672 72.9053 314.868 72.364C315.073 71.8133 315.251 71.2627 315.4 70.712C315.559 70.152 315.685 69.62 315.778 69.116C315.806 68.976 315.825 68.8033 315.834 68.598C315.853 68.3927 315.862 68.2107 315.862 68.052L317.066 68.164ZM311.34 68.794C311.377 68.99 311.419 69.2 311.466 69.424C311.522 69.6387 311.573 69.844 311.62 70.04C311.713 70.376 311.83 70.754 311.97 71.174C312.11 71.594 312.255 72.014 312.404 72.434C312.563 72.854 312.726 73.2507 312.894 73.624C313.062 73.988 313.221 74.2913 313.37 74.534C313.613 74.9447 313.888 75.3647 314.196 75.794C314.504 76.2233 314.826 76.5967 315.162 76.914L314.28 77.642C314 77.3247 313.729 76.9887 313.468 76.634C313.207 76.2793 312.945 75.8733 312.684 75.416C312.507 75.1453 312.329 74.8187 312.152 74.436C311.975 74.044 311.793 73.624 311.606 73.176C311.429 72.728 311.256 72.2707 311.088 71.804C310.92 71.328 310.771 70.8707 310.64 70.432C310.575 70.208 310.5 69.9887 310.416 69.774C310.341 69.55 310.262 69.3493 310.178 69.172L311.34 68.794Z" fill="#444444"/>
<path d="M36.384 32.472C36.4587 32.64 36.5613 32.8873 36.692 33.214C36.8227 33.5407 36.958 33.8953 37.098 34.278C37.2473 34.6513 37.3827 35.0107 37.504 35.356C37.6253 35.692 37.714 35.958 37.77 36.154L36.678 36.532C36.622 36.336 36.5333 36.07 36.412 35.734C36.3 35.3887 36.174 35.0293 36.034 34.656C35.9033 34.2827 35.7727 33.9327 35.642 33.606C35.5113 33.27 35.3993 33.0133 35.306 32.836L36.384 32.472ZM42.6 33.368C42.5533 33.4893 42.5067 33.6247 42.46 33.774C42.4227 33.9233 42.3853 34.054 42.348 34.166C42.2173 34.7447 42.04 35.342 41.816 35.958C41.6013 36.574 41.3447 37.1807 41.046 37.778C40.7473 38.366 40.4067 38.912 40.024 39.416C39.548 40.0413 39.0067 40.62 38.4 41.152C37.8027 41.6747 37.1727 42.132 36.51 42.524C35.8567 42.916 35.1987 43.2287 34.536 43.462L33.57 42.482C34.242 42.286 34.9093 42.0107 35.572 41.656C36.2347 41.3013 36.8647 40.8813 37.462 40.396C38.0687 39.9013 38.6053 39.3553 39.072 38.758C39.4453 38.2913 39.7813 37.7453 40.08 37.12C40.3787 36.4853 40.6353 35.818 40.85 35.118C41.0647 34.4087 41.2187 33.704 41.312 33.004L42.6 33.368ZM32.478 33.312C32.5713 33.508 32.688 33.774 32.828 34.11C32.968 34.4367 33.1173 34.796 33.276 35.188C33.4347 35.5707 33.5793 35.9393 33.71 36.294C33.85 36.6393 33.962 36.924 34.046 37.148L32.94 37.554C32.884 37.386 32.8047 37.1667 32.702 36.896C32.6087 36.616 32.4967 36.322 32.366 36.014C32.2447 35.6967 32.1187 35.384 31.988 35.076C31.8667 34.768 31.75 34.4973 31.638 34.264C31.526 34.0213 31.4373 33.8393 31.372 33.718L32.478 33.312ZM49.432 31.884C49.4507 32.0333 49.4787 32.1967 49.516 32.374C49.5627 32.5513 49.614 32.7473 49.67 32.962C49.7727 33.3353 49.8987 33.7927 50.048 34.334C50.1973 34.8753 50.356 35.4633 50.524 36.098C50.7013 36.7233 50.8787 37.3533 51.056 37.988C51.2427 38.6227 51.4107 39.2247 51.56 39.794C51.7187 40.3633 51.8587 40.8627 51.98 41.292C52.1013 41.712 52.19 42.02 52.246 42.216C52.274 42.3093 52.3067 42.4213 52.344 42.552C52.3907 42.6827 52.4373 42.818 52.484 42.958C52.5307 43.0887 52.5727 43.2053 52.61 43.308L51.308 43.616C51.28 43.4573 51.2427 43.2707 51.196 43.056C51.1587 42.8507 51.112 42.6547 51.056 42.468C51.0093 42.3 50.9347 42.0293 50.832 41.656C50.7293 41.2827 50.608 40.8393 50.468 40.326C50.3373 39.8127 50.1927 39.2667 50.034 38.688C49.8753 38.1093 49.7167 37.5353 49.558 36.966C49.4087 36.3873 49.264 35.846 49.124 35.342C48.984 34.8287 48.8627 34.39 48.76 34.026C48.6573 33.6527 48.5827 33.3913 48.536 33.242C48.4613 32.9807 48.3913 32.7707 48.326 32.612C48.2607 32.444 48.2 32.304 48.144 32.192L49.432 31.884ZM57.524 34.166C57.356 34.5207 57.132 34.9173 56.852 35.356C56.5813 35.7853 56.278 36.224 55.942 36.672C55.606 37.12 55.2653 37.5493 54.92 37.96C54.584 38.3613 54.2713 38.702 53.982 38.982L52.848 38.436C53.1373 38.212 53.4313 37.946 53.73 37.638C54.0287 37.33 54.3133 37.008 54.584 36.672C54.864 36.336 55.1113 36.014 55.326 35.706C55.55 35.398 55.7273 35.132 55.858 34.908C55.746 34.9267 55.5033 34.9733 55.13 35.048C54.766 35.1133 54.3087 35.202 53.758 35.314C53.2167 35.426 52.6287 35.5473 51.994 35.678C51.3593 35.7993 50.72 35.9253 50.076 36.056C49.4413 36.1773 48.8393 36.2987 48.27 36.42C47.7007 36.532 47.206 36.6347 46.786 36.728C46.3753 36.812 46.0813 36.8727 45.904 36.91L45.596 35.72C45.8387 35.7013 46.0673 35.678 46.282 35.65C46.506 35.622 46.744 35.5893 46.996 35.552C47.108 35.5333 47.3413 35.4913 47.696 35.426C48.06 35.3607 48.494 35.2813 48.998 35.188C49.5113 35.0853 50.0573 34.978 50.636 34.866C51.224 34.754 51.812 34.642 52.4 34.53C52.988 34.418 53.5387 34.3153 54.052 34.222C54.5747 34.1193 55.018 34.0307 55.382 33.956C55.746 33.8813 55.9887 33.83 56.11 33.802C56.222 33.7833 56.334 33.76 56.446 33.732C56.558 33.6947 56.656 33.6527 56.74 33.606L57.524 34.166Z" fill="#444444"/>
<path d="M103.86 32.45V32.57L95.37 38.72L98.7 48.86L98.61 48.89L90 42.65L81.39 48.89L81.3 48.86L84.63 38.72L76.14 32.57V32.45H86.64L89.94 22.37H90.06L93.36 32.45H103.86ZM148.56 32.45V32.57L140.07 38.72L143.4 48.86L143.31 48.89L134.7 42.65L126.09 48.89L126 48.86L129.33 38.72L120.84 32.57V32.45H131.34L134.64 22.37H134.76L138.06 32.45H148.56ZM193.26 32.45V32.57L184.77 38.72L188.1 48.86L188.01 48.89L179.4 42.65L170.79 48.89L170.7 48.86L174.03 38.72L165.54 32.57V32.45H176.04L179.34 22.37H179.46L182.76 32.45H193.26ZM237.96 32.45V32.57L229.47 38.72L232.8 48.86L232.71 48.89L224.1 42.65L215.49 48.89L215.4 48.86L218.73 38.72L210.24 32.57V32.45H220.74L224.04 22.37H224.16L227.46 32.45H237.96ZM282.66 32.45V32.57L274.17 38.72L277.5 48.86L277.41 48.89L268.8 42.65L260.19 48.89L260.1 48.86L263.43 38.72L254.94 32.57V32.45H265.44L268.74 22.37H268.86L272.16 32.45H282.66ZM305.73 43.52V36.95H299.64V34.91H305.73V28.34H307.92V34.91H314.04V36.95H307.92V43.52H305.73Z" fill="#FF798B"/>
<path d="M314.501 20.7959L311.698 25.6516" stroke="#444444"/>
<path d="M320.43 24.9468L315.624 28.3399" stroke="#444444"/>
<path d="M307.943 17.7378L307.407 23.5965" stroke="#444444"/>
</svg>
