<svg width="63" height="116" viewBox="0 0 63 116" fill="none" xmlns="http://www.w3.org/2000/svg">
<path d="M10.6974 23.3293H4.51953L4.96831 19.8577H11.1503L12.5648 10.136C12.8226 8.20582 13.3273 6.6044 14.0803 5.33854C14.8292 4.07268 15.6899 3.05236 16.6502 2.27757C17.616 1.50687 18.6527 0.961237 19.7412 0.635225C20.8379 0.317396 21.8582 0.152344 22.8022 0.152344C24.6014 0.152344 26.0623 0.414245 27.1808 0.927136L25.8932 4.27184C25.0761 3.84488 23.963 3.63209 22.5444 3.63209C19.021 3.63209 16.9217 6.2702 16.2355 11.5505L15.012 19.8577H21.9646L21.5118 23.3293H14.5591L10.8925 49.5944H7.03078L10.6974 23.3293Z" fill="#444444"/>
<path d="M37.6583 76.5349C38.7768 78.4651 40.2241 79.9055 42.0029 80.8495C43.7857 81.7934 45.8141 82.2681 48.0921 82.2681C49.5066 82.2681 50.8366 82.0567 52.0806 81.6243C53.3219 81.1919 54.405 80.5862 55.3285 79.821C56.252 79.0503 56.9804 78.1104 57.5178 77.0178C58.0512 75.9211 58.3226 74.6893 58.3226 73.3171C58.3226 71.7293 57.9925 70.4212 57.3268 69.3913C56.6625 68.3628 55.7732 67.5198 54.6546 66.8514C53.5415 66.1816 52.2839 65.6155 50.8857 65.1449C49.4889 64.6702 48.0566 64.1969 46.5711 63.7263C45.0939 63.2557 43.6534 62.7224 42.2607 62.1222C40.868 61.5165 39.6103 60.7376 38.4918 59.7678C37.3787 58.802 36.4893 57.5907 35.8195 56.1298C35.1593 54.6689 34.8238 52.8697 34.8238 50.7226C34.8238 48.7065 35.2221 46.9155 36.0132 45.3496C36.8099 43.7781 37.8847 42.47 39.2311 41.4238C40.5856 40.3693 42.1406 39.5782 43.8976 39.0394C45.6627 38.5019 47.5096 38.2305 49.4357 38.2305C51.9292 38.2305 54.2331 38.6752 56.3583 39.5509C58.4795 40.428 60.3169 41.9053 61.8624 43.9637L58.1917 46.5977C57.1168 45.1027 55.8673 43.9718 54.4268 43.223C52.9877 42.4686 51.2813 42.0962 49.3075 42.0962C47.9311 42.0962 46.623 42.2736 45.3817 42.6419C44.1322 43.0061 43.0532 43.5476 42.1297 44.2515C41.2063 44.9622 40.4656 45.8515 39.9063 46.9237C39.347 47.9986 39.0674 49.2617 39.0674 50.7213C39.0674 52.9993 39.6471 54.7439 40.8079 55.9675C41.9688 57.191 43.412 58.1568 45.1525 58.8675C46.8931 59.5741 48.7809 60.1975 50.8175 60.7349C52.8581 61.2683 54.7474 61.9885 56.4825 62.886C58.223 63.7877 59.6717 65.0454 60.8311 66.655C61.9824 68.2646 62.5635 70.4866 62.5635 73.3157C62.5635 75.3741 62.1788 77.2033 61.4122 78.787C60.6374 80.3748 59.5953 81.7211 58.2831 82.8137C56.9749 83.9105 55.4635 84.7357 53.7475 85.2909C52.0329 85.8502 50.25 86.1257 48.4045 86.1257C45.398 86.1257 42.629 85.6046 40.0973 84.5502C37.5656 83.4999 35.4008 81.7307 33.6016 79.2399L37.6542 76.5336L37.6583 76.5349Z" fill="#444444"/>
<path d="M3.31196 85.3472L0 85.3676L50.3042 0.0218251L53.6161 0L3.31196 85.3472Z" fill="#444444"/>
<path d="M1.701 105.364H0L0.150048 104.264H1.85241L2.10203 102.512C2.16887 102.033 2.27391 101.598 2.41986 101.203C2.56582 100.807 2.76361 100.466 3.02142 100.175C3.2765 99.8863 3.59296 99.6612 3.97217 99.5002C4.35002 99.3393 4.80016 99.2588 5.32397 99.2588C5.49038 99.2588 5.66635 99.2752 5.84913 99.3093C6.03328 99.3434 6.18606 99.3925 6.30883 99.4593L5.95826 100.627C5.82458 100.571 5.68545 100.53 5.54085 100.503C5.39626 100.476 5.24621 100.461 5.09071 100.461C4.75651 100.461 4.48779 100.519 4.28182 100.637C4.07584 100.754 3.91488 100.915 3.79757 101.121C3.68026 101.327 3.5916 101.574 3.53158 101.863C3.4702 102.152 3.417 102.464 3.37198 102.797L3.15509 104.265H5.05661L4.90656 105.366H3.00368L2.06929 112.073H0.767972L1.701 105.366V105.364Z" fill="#444444"/>
<path d="M5.42288 107.835C5.51428 107.203 5.70388 106.629 5.9917 106.112C6.27815 105.595 6.63963 105.15 7.07614 104.778C7.51264 104.406 8.00916 104.114 8.5657 103.908C9.12224 103.7 9.71152 103.597 10.3322 103.597C10.9528 103.597 11.5121 103.7 12.0113 103.908C12.5106 104.114 12.9239 104.404 13.2513 104.778C13.5787 105.152 13.8146 105.595 13.9579 106.112C14.1011 106.629 14.127 107.202 14.0356 107.835C13.9442 108.466 13.7546 109.039 13.4682 109.556C13.1817 110.073 12.8216 110.518 12.3919 110.89C11.9609 111.264 11.4671 111.555 10.9105 111.761C10.354 111.967 9.76472 112.07 9.14407 112.07C8.52341 112.07 7.96415 111.967 7.4649 111.761C6.96565 111.553 6.55233 111.264 6.22496 110.89C5.89758 110.518 5.65887 110.073 5.51018 109.556C5.36014 109.039 5.33013 108.466 5.42288 107.835ZM6.87016 107.835C6.81151 108.259 6.82651 108.652 6.91245 109.015C6.99838 109.378 7.14843 109.693 7.36123 109.961C7.57266 110.232 7.84274 110.444 8.17012 110.6C8.4975 110.754 8.87807 110.832 9.31458 110.832C9.75108 110.832 10.1562 110.754 10.53 110.6C10.9024 110.444 11.2325 110.232 11.5203 109.961C11.8067 109.693 12.0427 109.376 12.2255 109.015C12.4097 108.653 12.5297 108.26 12.587 107.835C12.6443 107.409 12.632 107.016 12.5529 106.655C12.4724 106.293 12.3264 105.977 12.1136 105.708C11.9009 105.438 11.6321 105.225 11.3048 105.071C10.9774 104.916 10.5954 104.839 10.1589 104.839C9.72243 104.839 9.3173 104.917 8.94491 105.071C8.57252 105.225 8.24105 105.438 7.9546 105.708C7.66814 105.977 7.42943 106.293 7.23982 106.655C7.05022 107.016 6.92609 107.409 6.87016 107.835Z" fill="#444444"/>
<path d="M16.4129 105.716C16.4702 105.349 16.507 105.004 16.5247 104.683C16.5411 104.361 16.567 104.069 16.6025 103.805H17.8943C17.8711 104.023 17.8479 104.241 17.8247 104.459C17.8015 104.678 17.7729 104.901 17.7388 105.13H17.7729C17.8874 104.935 18.0416 104.747 18.238 104.563C18.4331 104.38 18.6568 104.215 18.9105 104.072C19.1628 103.929 19.4384 103.814 19.7371 103.728C20.0358 103.642 20.3509 103.599 20.6851 103.599C20.7765 103.599 20.8666 103.604 20.9525 103.616C21.0384 103.627 21.1271 103.65 21.2185 103.685L20.943 105.045C20.7356 104.976 20.501 104.942 20.2364 104.942C19.4097 104.942 18.7727 105.21 18.3239 105.743C17.8752 106.278 17.5873 107.009 17.4591 107.939L16.8998 111.866H15.5508L16.4129 105.716Z" fill="#444444"/>
<path d="M29.4312 112.073C29.0793 112.073 28.7232 112.041 28.374 111.979C28.0289 111.916 27.6975 111.819 27.3892 111.688C27.0836 111.559 26.804 111.387 26.5571 111.178C26.3307 110.988 26.1397 110.755 25.9883 110.484L27.2269 109.571C27.4356 109.991 27.7588 110.317 28.1899 110.541C28.6482 110.781 29.1597 110.902 29.7108 110.902C30.0314 110.902 30.3669 110.853 30.7066 110.758C31.0422 110.665 31.3627 110.523 31.6587 110.336C31.952 110.151 32.2044 109.916 32.409 109.639C32.6163 109.358 32.7459 109.032 32.7936 108.668C32.8414 108.268 32.8168 107.938 32.7172 107.686C32.6177 107.431 32.439 107.209 32.1866 107.023C31.9411 106.843 31.6151 106.681 31.2181 106.539C31.2181 106.539 30.2578 106.196 29.8459 106.049C29.4285 105.909 29.0438 105.749 28.7041 105.573C28.3672 105.398 28.0821 105.183 27.8584 104.931C27.6347 104.68 27.471 104.374 27.3714 104.023C27.2705 103.67 27.2541 103.239 27.3223 102.743C27.4015 102.167 27.587 101.657 27.8762 101.227C28.1653 100.795 28.5282 100.431 28.951 100.143C29.3766 99.8535 29.8527 99.6312 30.3656 99.4825C30.8785 99.3338 31.4105 99.2588 31.9479 99.2588C32.6327 99.2588 33.2465 99.3652 33.7744 99.5753C34.2709 99.773 34.7061 100.117 35.0675 100.596L33.8685 101.516C33.6735 101.155 33.3911 100.885 33.0296 100.71C32.6381 100.525 32.2098 100.431 31.7556 100.431C31.4214 100.431 31.0844 100.473 30.7543 100.555C30.4201 100.639 30.1091 100.766 29.8281 100.933C29.543 101.103 29.2989 101.329 29.0997 101.605C28.8992 101.885 28.7723 102.217 28.7246 102.593C28.6878 102.88 28.6973 103.142 28.7519 103.37C28.8078 103.602 28.9347 103.815 29.1284 104.002C29.3166 104.183 29.5717 104.354 29.8868 104.509C30.2033 104.665 30.6043 104.819 31.0804 104.969C31.525 105.117 31.967 105.281 32.394 105.456C32.8086 105.626 33.166 105.843 33.4593 106.102C33.7485 106.359 33.9667 106.683 34.1059 107.068C34.2464 107.454 34.2764 107.947 34.1973 108.536C34.1072 109.135 33.9122 109.663 33.6175 110.103C33.3229 110.545 32.9532 110.915 32.5167 111.204C32.0775 111.495 31.5864 111.714 31.0585 111.856C30.5293 111.999 29.9809 112.07 29.4312 112.07V112.073Z" fill="#444444"/>
<path d="M41.0834 104.942H38.7072L38.1397 108.972C38.1056 109.236 38.0797 109.48 38.062 109.704C38.0456 109.929 38.062 110.124 38.1138 110.289C38.1656 110.457 38.2652 110.588 38.4153 110.686C38.5653 110.783 38.7877 110.832 39.0878 110.832C39.2828 110.832 39.4861 110.809 39.6989 110.763C39.9117 110.716 40.1149 110.648 40.31 110.555L40.1899 111.779C39.9498 111.881 39.6839 111.958 39.3988 112.003C39.1109 112.049 38.8409 112.072 38.5885 112.072C38.107 112.072 37.7305 112.009 37.4604 111.883C37.1903 111.757 36.9925 111.578 36.867 111.349C36.7402 111.12 36.6747 110.836 36.6679 110.497C36.6624 110.158 36.6884 109.782 36.7456 109.369L37.3649 104.942H35.6094L35.7635 103.806H37.5204L37.8478 101.516H39.1914L38.864 103.806H41.2403L41.0848 104.942H41.0834Z" fill="#444444"/>
<path d="M45.3391 113.708C45.155 114.052 44.9708 114.366 44.788 114.647C44.6039 114.929 44.4006 115.169 44.1769 115.371C43.9519 115.571 43.6913 115.726 43.3939 115.836C43.0952 115.945 42.7446 116 42.3436 116C42.1472 116 41.9439 115.987 41.7325 115.966C41.5197 115.942 41.3342 115.885 41.1719 115.794L41.4993 114.622C41.7284 114.713 42.0381 114.761 42.4295 114.761C42.866 114.761 43.2043 114.641 43.4458 114.4C43.6872 114.158 43.9109 113.836 44.1183 113.435L44.8767 111.92L42.6724 103.808H44.2397L45.8588 110.129H45.8929L49.1653 103.808H50.629L45.3418 113.712L45.3391 113.708Z" fill="#444444"/>
<path d="M52.6832 99.2588H54.005L52.2085 112.073H50.8867L52.6832 99.2588Z" fill="#444444"/>
<path d="M61.8405 110.4C61.2771 111.02 60.6933 111.453 60.0849 111.701C59.4752 111.948 58.7932 112.071 58.0347 112.071C57.4032 112.071 56.8494 111.959 56.3719 111.734C55.8945 111.51 55.5085 111.209 55.2097 110.831C54.911 110.452 54.7037 110.004 54.5891 109.487C54.4745 108.97 54.4581 108.419 54.5373 107.834C54.6286 107.213 54.8155 106.643 55.0979 106.119C55.3789 105.597 55.7295 105.149 56.1482 104.777C56.567 104.405 57.0431 104.113 57.5778 103.907C58.1111 103.699 58.6772 103.596 59.2733 103.596C59.8367 103.596 60.3414 103.691 60.7888 103.879C61.2376 104.069 61.6018 104.345 61.8828 104.706C62.1638 105.068 62.3616 105.509 62.4761 106.032C62.5907 106.556 62.603 107.149 62.5102 107.815L62.442 108.246H55.9313C55.9081 108.59 55.9463 108.921 56.0432 109.236C56.1414 109.553 56.2874 109.828 56.4824 110.063C56.6788 110.299 56.9216 110.484 57.2149 110.623C57.5082 110.761 57.8383 110.831 58.2052 110.831C58.7904 110.831 59.2992 110.727 59.7303 110.52C60.1613 110.312 60.5651 110.01 60.9443 109.607L61.8391 110.398L61.8405 110.4ZM61.168 107.111C61.2376 106.422 61.0902 105.871 60.7288 105.458C60.3673 105.044 59.8135 104.838 59.0673 104.838C58.3212 104.838 57.6855 105.044 57.1631 105.458C56.6407 105.871 56.2874 106.422 56.1032 107.111H61.1666H61.168Z" fill="#444444"/>
</svg>
