<svg width="777" height="45" viewBox="0 0 777 45" fill="none" xmlns="http://www.w3.org/2000/svg">
<path d="M6.17495 19.9297C4.52159 21.1945 3.63768 21.688 3.30811 21.688C3.14263 21.688 2.97716 21.633 2.75653 21.4131C2.09601 20.7545 1.10316 20.1496 0 19.6547C7.27812 15.2568 11.8562 10.5275 15.6056 3.65487C16.3241 2.33506 16.9294 0.795295 17.3707 -0.744474C19.9079 0.136768 21.6716 1.18024 21.6716 1.84014C21.6716 2.0601 21.5613 2.22508 21.2304 2.50004C20.625 2.9386 20.2927 3.37991 19.5218 4.69971C19.1357 5.35824 18.8599 5.85454 18.3635 6.56805H26.8013C33.3086 6.56805 33.4741 6.56805 34.4118 6.18311C34.6324 6.0745 34.7979 6.01951 35.0185 6.01951C35.4584 6.01951 35.9562 6.45807 37.0028 7.72288C37.6096 8.49276 38.0508 9.20766 38.0508 9.53761C38.0508 9.81119 37.9405 9.92117 37.611 10.3075C37.2248 10.6374 36.7822 11.3523 36.1217 12.6721C32.3709 19.9847 29.5027 24.2726 25.1466 29.1669C20.4044 34.4447 16.0469 37.9628 8.98802 42.2536C7.11264 43.4084 6.23011 43.792 5.79023 43.792C5.45928 43.792 5.23864 43.682 4.96147 43.4084C4.30096 42.6921 3.30811 42.0336 2.14979 41.4287C10.8069 36.9757 15.4953 33.5663 21.3958 27.5185C18.4738 24.3854 16.2124 22.4057 13.1235 20.261C12.8491 20.0424 12.6836 19.8774 12.6836 19.7125C12.6836 19.4925 12.9042 19.1625 13.7316 18.3377C14.559 17.5128 14.6693 17.4578 15.0003 17.4578C15.9379 17.4578 21.5075 21.8558 23.9897 24.6053C24.9825 23.5055 26.2511 21.8008 27.2978 20.316C29.9454 16.4679 31.214 13.9933 32.8687 9.81394C26.3049 9.86893 26.1946 9.86893 16.1586 9.86893C12.9608 14.1033 9.98224 17.0715 6.17633 19.931L6.17495 19.9297ZM40.9742 7.77787C40.7536 7.77787 40.5881 7.66789 40.4226 7.33794C38.7693 4.69971 37.9405 3.65487 36.232 2.0601C36.1217 1.84014 36.0665 1.73015 36.0665 1.62017C36.0665 1.56518 36.1217 1.4552 36.1768 1.2366C36.7822 0.631694 37.5006 0.136768 37.9405 0.136768C38.7693 0.136768 43.0702 5.02966 43.0702 6.01951C43.0702 6.18311 43.0151 6.29309 42.9048 6.51306C42.1877 7.17296 41.25 7.77787 40.9756 7.77787H40.9742ZM47.647 2.99359C47.647 3.32354 47.5918 3.37853 46.9865 3.81847C46.3797 4.2584 45.6627 4.58973 45.442 4.58973C45.2766 4.58973 45.1111 4.42475 44.9456 4.03981C44.2285 2.6114 42.7393 0.686686 40.9756 -1.01806C40.755 -1.23803 40.6998 -1.34801 40.6998 -1.51298C40.6998 -1.56798 40.755 -1.73295 40.8653 -1.89793C41.25 -2.33649 42.2994 -2.88778 42.6841 -2.88778C43.346 -2.88778 45.9371 0.0267851 47.4815 2.44642C47.5918 2.72001 47.647 2.82862 47.647 2.99359Z" fill="#444444"/>
<path d="M86.3719 29.9353C86.3719 30.2102 86.1512 30.5402 85.5445 31.2001C84.1104 32.6849 83.8897 32.8498 83.6139 32.8498C83.5036 32.8498 82.9341 32.2816 81.9054 31.1451C80.5816 29.5517 78.5959 27.5706 75.6174 24.8774C72.4196 29.0004 68.9446 32.5749 65.0284 35.818C61.1673 39.0612 57.3077 41.7008 56.5354 41.7008C56.1507 41.7008 56.0404 41.6458 55.2668 40.8759C54.7718 40.381 53.8878 39.8311 52.8398 39.3361C61.1673 34.7182 66.7383 29.9339 72.6389 22.3478C67.5643 18.3334 65.9096 17.1236 62.3808 14.9253C62.0513 14.7053 61.9409 14.5953 61.9409 14.4304C61.9409 14.1568 62.3257 13.6055 63.3737 12.397C63.7598 11.9585 63.9252 11.8485 64.2576 11.8485C64.9746 11.8485 68.9446 14.5967 74.9017 19.2146C79.6439 12.1771 82.9534 5.08452 83.7243 0.575195C86.8669 1.56505 88.6333 2.5549 88.6333 3.26979C88.6333 3.43477 88.523 3.59974 88.1369 3.98468C87.4199 4.75594 86.8131 5.79941 85.9306 7.61414C83.1741 13.4969 81.0767 17.1813 77.9892 21.6893C82.6211 25.5387 86.3719 29.2218 86.3719 29.9367V29.9353Z" fill="#444444"/>
<path d="M121.731 19.2126C132.815 19.2126 142.522 19.049 145.609 18.774H145.94C146.437 18.774 146.657 19.1576 146.657 20.1488C146.657 22.7321 146.549 23.117 145.885 23.117H145.609C144.506 23.007 139.545 22.952 135.739 22.952C134.91 22.952 121.123 23.007 116.436 23.062C110.867 23.062 108.991 23.172 105.847 23.557C105.682 23.6119 105.516 23.6119 105.407 23.6119C105.076 23.6119 104.856 23.447 104.746 23.117C104.47 22.1822 104.359 21.0273 104.195 18.6641C107.67 19.1026 111.749 19.2126 121.731 19.2126Z" fill="#444444"/>
<path d="M165.031 14.3754C165.418 13.8819 165.528 13.7719 165.86 13.7719C166.466 13.7719 170.768 15.5852 173.857 17.125C176.668 18.5548 177.882 19.3797 177.882 19.7646C177.882 20.1495 177.442 21.0844 176.889 22.0193C176.449 22.6778 176.062 23.0091 175.786 23.0091C175.676 23.0091 175.455 22.8991 175.236 22.7891C171.43 20.2595 168.451 18.7211 165.253 17.5663C164.04 17.1264 163.985 17.1264 163.93 16.6864C163.93 16.3565 164.48 15.2017 165.031 14.3754ZM204.077 16.0801C204.132 16.2451 204.187 16.5201 204.187 16.6851C204.187 17.2886 204.077 17.5099 203.139 18.6634C201.155 21.083 197.569 24.8211 195.142 27.0208C189.297 32.2986 180.582 37.5228 172.475 40.491C170.82 41.1509 170.103 41.5358 169.332 42.1407C169.112 42.3607 168.891 42.4707 168.781 42.4707C168.175 42.4707 167.127 40.656 166.023 37.7978C169.608 37.3028 173.468 35.928 178.212 33.5634C184.444 30.4852 190.124 26.4708 195.032 21.6866C198.064 18.6634 200.051 16.2987 202.863 12.2843C203.139 13.9341 203.359 14.594 204.077 16.0788V16.0801ZM182.238 11.2959C181.742 12.0657 181.354 12.3957 181.025 12.3957C180.914 12.3957 180.749 12.3407 180.583 12.1757C179.811 11.4058 178.654 10.5274 176.888 9.26254C174.737 7.66778 173.524 7.00788 170.325 5.52311C169.829 5.24815 169.663 5.13816 169.663 4.86458C169.663 4.591 169.939 4.14831 170.767 3.10484C171.373 2.33496 171.54 2.16998 171.816 2.16998C172.643 2.16998 176.338 4.09332 179.426 6.0744C182.459 8.05273 183.343 8.82261 183.343 9.31754C183.343 9.59249 183.012 10.3074 182.239 11.2959H182.238ZM195.97 2.44494C196.08 2.38995 196.245 2.27997 196.466 2.11499C197.183 1.56508 197.459 1.4001 197.735 1.45509C198.175 1.51008 199.278 2.50131 200.767 4.0947C201.815 5.30451 203.139 7.11924 203.139 7.44782C203.139 7.72278 202.973 7.94274 202.201 8.49266C201.428 9.15256 201.043 9.3739 200.877 9.3739C200.712 9.3739 200.546 9.26392 200.381 8.93397C199.112 6.67931 197.899 5.13954 195.97 3.38118C195.749 3.2162 195.639 3.05123 195.639 2.94124C195.639 2.77627 195.749 2.61267 195.97 2.44769V2.44494ZM202.423 -1.73443C203.361 -1.67944 207.607 3.26982 207.607 4.2033C207.607 4.53325 207.496 4.64324 206.393 5.41312C205.733 5.85306 205.566 5.90805 205.345 5.90805C205.18 5.90805 205.069 5.85306 204.959 5.52311C203.746 3.37843 202.423 1.72868 200.493 0.0253062C200.327 -0.0846772 200.272 -0.139669 200.272 -0.249652C200.272 -0.634595 201.982 -1.78942 202.425 -1.73443H202.423Z" fill="#444444"/>
<path d="M246.11 13.6049C245.89 22.2923 244.126 29.0549 240.651 34.2241C238.554 37.3023 235.576 40.1068 232.213 42.0316C231.386 42.5251 231.11 42.6351 230.834 42.6351C230.503 42.6351 230.393 42.5801 229.676 41.8102C229.179 41.3167 228.352 40.8204 227.249 40.3804C232.103 37.9058 234.528 35.9275 236.9 32.683C240.208 28.065 241.92 21.9609 242.084 13.6036C239.253 13.6402 235.853 13.6586 231.882 13.6586C229.861 13.6586 228.684 13.6769 228.352 13.7136C226.533 16.5731 225.32 18.2765 223.277 20.6411C221.624 22.4559 220.906 23.1158 220.466 23.1158C220.3 23.1158 220.135 23.0608 219.804 22.8408C218.977 22.2923 218.095 21.851 216.992 21.521C222.451 16.7381 225.926 11.6802 228.297 5.30119C229.069 3.10152 229.621 0.903227 229.841 -1.02148C233.094 -0.306592 234.528 0.296943 234.528 0.901852C234.528 1.06683 234.418 1.2318 234.197 1.50539C233.831 1.90866 233.224 3.22846 232.379 5.46479C231.717 7.27952 231 8.8729 230.281 10.2477L234.859 10.3027H238.278C245.337 10.3027 258.297 10.1377 259.84 10.0277H260.227C260.723 10.0277 260.832 10.4127 260.832 11.9524C260.832 13.5458 260.778 13.7108 260.005 13.7108C259.674 13.7108 259.399 13.7108 258.846 13.6558C258.296 13.6558 254.876 13.6008 253.442 13.6008H246.107L246.11 13.6049Z" fill="#444444"/>
<path d="M282.9 7.22799C279.261 7.28298 277.331 7.39159 275.29 7.72154C275.014 7.77653 274.794 7.77653 274.683 7.77653C274.188 7.77653 273.911 7.55657 273.746 6.84167C273.47 5.79683 273.306 4.697 273.195 3.21222C276.945 3.65215 279.096 3.70714 287.532 3.70714C289.242 3.70714 300.714 3.65215 307.828 3.59716C309.317 3.54217 309.924 3.48718 310.641 3.26721C310.861 3.21222 311.027 3.15723 311.246 3.15723C311.853 3.15723 312.404 3.59716 313.232 4.697C314.004 5.68685 314.609 6.84167 314.609 7.28161C314.609 7.66517 314.445 7.88514 313.949 8.16148C313.177 8.63807 311.963 9.90288 310.308 11.9559C307.276 15.639 301.541 20.9732 300.547 20.9732C300.328 20.9732 300.162 20.9182 299.997 20.6982C299.114 19.8183 298.563 19.4884 296.963 18.7749C302.368 15.2554 305.511 12.1759 309.152 7.06301L282.9 7.22799ZM293.6 12.5058C294.648 12.7258 294.923 12.8908 294.923 13.3307C294.923 13.514 294.813 13.8989 294.593 14.4855C294.318 15.1454 294.208 15.6404 294.042 17.4001C293.767 19.7097 292.994 23.9427 292.498 25.6475C290.624 32.1901 286.928 37.3593 281.524 40.9324C279.925 41.9773 278.491 42.7458 278.106 42.7458C277.775 42.7458 277.72 42.6908 276.892 41.8659C276.341 41.3174 276.008 41.096 274.685 40.3811C280.421 37.6329 283.398 35.2133 285.935 31.1439C288.362 27.1859 290.016 21.0832 290.016 15.804C290.016 13.8256 290.016 13.0557 289.905 12.0645C291.505 12.1745 292.608 12.2845 293.601 12.5044L293.6 12.5058Z" fill="#444444"/>
<path d="M334.885 8.53436C334.885 8.18241 334.885 7.83046 334.84 7.47852C337.575 8.04906 338.899 8.62097 338.899 9.19288C338.899 9.36886 338.856 9.54483 338.59 9.89815C338.06 10.778 337.663 12.1844 337.001 15.5293C336.973 15.7933 336.885 16.2474 336.738 16.8917C337.738 16.9504 339.091 16.9797 340.796 16.9797C341.59 16.9797 341.988 17.3023 341.988 17.9476C341.988 18.8274 341.899 19.4873 341.767 19.6193C341.635 19.7953 341.414 19.7953 339.163 19.7953C338.281 19.7953 337.707 19.7513 336.207 19.6193C335.323 24.1066 335.236 24.5892 334.707 28.286C336.428 28.462 337.22 28.5046 338.104 28.5046C338.634 28.5046 340.311 28.462 340.662 28.418H340.839C341.326 28.418 341.501 28.9459 341.501 30.6177C341.501 31.3656 341.457 31.3656 339.515 31.3656C337.75 31.3656 336.47 31.3216 334.396 31.103C334.264 32.5548 334.22 33.7426 334.22 34.7091C334.22 38.9764 336.428 41.0001 341.06 41.0001C346.134 41.0001 349.532 38.3165 349.532 34.3571C349.532 32.2468 348.782 30.0458 347.414 28.2434C346.664 27.2316 346.046 26.6156 344.546 25.3838H344.81C345.384 25.3838 346.134 25.2972 346.795 25.1212C347.368 24.9879 347.412 24.9879 347.545 24.9879C348.031 24.9879 348.56 25.4278 349.663 26.7036C351.648 29.0353 352.663 31.5429 352.663 34.3571C352.663 40.0323 348.208 43.7263 341.368 43.7263C338.104 43.7263 335.5 42.8918 333.78 41.2201C332.28 39.7243 331.53 37.5246 331.53 34.5771C331.53 33.8732 331.616 32.5987 331.749 30.707C327.161 29.7832 325.043 28.0234 325.043 25.2079C325.043 23.7121 325.881 22.0403 326.587 22.0403C326.764 22.0403 327.027 22.1269 327.424 22.3923C328.042 22.7442 328.263 22.9642 328.263 23.2282C328.263 23.3601 328.219 23.4467 328.086 23.6241C327.689 24.2386 327.513 24.6346 327.513 25.0759C327.513 26.3957 329.189 27.4515 332.058 27.9354C332.278 26.1757 332.411 25.3838 333.424 19.2687C330.734 18.7834 328.042 17.773 325.968 16.4092C325.35 16.0132 325.218 15.8373 325.218 15.5293C325.218 15.176 325.615 14.3415 326.189 13.3736C329.145 15.2214 330.997 15.9692 333.866 16.4958C334.616 12.2284 334.88 10.1621 334.88 8.53436H334.885Z" fill="#444444"/>
<path d="M362.774 34.6198C363.26 34.0918 363.347 34.0479 363.568 34.0479C364.097 34.0479 367.01 36.1595 368.687 37.7433C370.363 39.3724 372.79 42.3626 372.79 42.8465C372.79 43.0665 372.658 43.2425 371.777 44.0783C370.938 44.8689 370.762 45.0022 370.541 45.0022C370.409 45.0022 370.278 44.9142 370.101 44.6489C367.717 40.8668 365.115 38.1832 361.982 36.3795C361.762 36.2461 361.672 36.1155 361.672 35.9396C361.672 35.7636 361.715 35.6756 362.774 34.6198Z" fill="#444444"/>
<path d="M413.466 39.6666C411.59 40.7665 411.204 40.9864 410.818 40.9864C410.542 40.9864 410.487 40.9314 409.715 40.1615C409.053 39.5566 408.446 39.0603 407.398 38.5118C414.788 34.6624 420.082 30.8129 425.872 24.9302C431.387 19.4324 434.917 14.6481 438.943 7.39058C437.105 7.42725 433.024 7.44558 426.7 7.44558C424.604 7.44558 417.6 7.61055 416.166 7.66554C415.56 7.72053 415.449 7.72053 414.952 7.77553C414.696 7.81219 414.476 7.83052 414.292 7.83052H414.126C413.576 7.83052 413.354 6.73068 413.299 3.43255C416.884 3.81612 417.986 3.87111 430.009 3.87111C436.847 3.87111 439.329 3.7625 440.378 3.43255C440.817 3.32257 441.038 3.26758 441.37 3.26758C442.143 3.26758 442.639 3.65252 443.632 4.86234C444.292 5.68721 444.68 6.45572 444.68 6.89566C444.68 7.22561 444.514 7.4442 444.13 7.72054C443.301 8.38044 442.585 9.20531 441.592 10.9087C438.614 15.9679 436.518 18.8825 432.934 23.0605C439.387 27.3485 441.813 29.2182 446.391 33.6175C449.037 36.0922 450.416 37.6319 450.416 38.1255C450.416 38.6754 448.155 40.9301 447.66 40.9301C447.439 40.9301 446.189 39.6469 443.909 37.0806C441.427 34.2774 437.126 30.428 433.541 27.8434C432.989 27.4035 432.051 26.7436 430.507 25.6987C424.882 31.6364 419.423 36.0908 413.467 39.6639L413.466 39.6666Z" fill="#444444"/>
<path d="M470.551 19.7099C468.897 20.9747 468.014 21.4682 467.683 21.4682C467.518 21.4682 467.354 21.4133 467.133 21.1947C466.471 20.5348 465.478 19.9299 464.375 19.4349C471.654 15.037 476.233 10.3627 479.982 3.43507C480.699 2.11527 481.306 0.575504 481.746 -0.962891C484.283 -0.0830227 486.048 0.960446 486.048 1.62035C486.048 1.84031 485.938 2.00529 485.607 2.28025C485.001 2.7738 484.669 3.21511 483.898 4.47992C483.512 5.19481 483.236 5.63475 482.738 6.34826H491.176C497.685 6.34826 497.85 6.34826 498.788 5.96469C499.009 5.85471 499.174 5.79972 499.394 5.79972C499.835 5.79972 500.333 6.23828 501.379 7.50309C501.985 8.27435 502.427 8.98787 502.427 9.31782C502.427 9.59278 502.317 9.70138 501.986 10.0877C501.6 10.4177 501.159 11.1325 500.497 12.4523C496.747 19.7649 493.879 24.0529 489.523 28.9471C484.781 34.2263 480.422 37.7444 473.363 42.0338C471.489 43.1886 470.606 43.5736 470.165 43.5736C469.834 43.5736 469.615 43.4636 469.338 43.1886C468.676 42.4737 467.683 41.8138 466.525 41.2103C475.183 36.756 479.872 33.4015 485.772 27.2987C482.849 24.1656 480.587 22.1859 477.5 20.0426C477.224 19.8226 477.059 19.6576 477.059 19.4927C477.059 19.2727 477.279 18.9441 478.107 18.1179C478.935 17.293 479.046 17.238 479.375 17.238C480.314 17.238 485.884 21.636 488.366 24.4405C489.359 23.2857 490.628 21.636 491.674 20.0976C494.322 16.2482 495.59 13.8285 497.244 9.59553C490.681 9.65052 490.571 9.65052 480.534 9.65052C477.336 13.8835 474.357 16.9067 470.553 19.7113L470.551 19.7099Z" fill="#444444"/>
<path d="M535.802 16.08C531.391 19.1582 526.702 21.8528 521.684 24.1624C519.257 25.3172 518.099 25.7572 517.714 25.7572C517.493 25.7572 517.273 25.6472 516.996 25.3172C516.113 24.3274 515.562 23.8325 514.293 23.0626C522.125 20.2044 528.191 17.0149 534.478 12.5055C541.097 7.77763 545.95 3.04834 548.101 -0.746094C550.252 0.683692 551.796 2.16847 551.796 2.82837C551.796 3.04834 551.686 3.21331 551.3 3.37829C550.639 3.70824 549.976 4.20316 548.432 5.68794C545.179 8.71111 543.469 10.1959 539.775 13.1105V31.1986C539.775 34.3318 539.83 37.5227 539.885 38.8975C539.94 39.501 539.94 39.8873 539.94 39.9423C539.94 40.4359 539.94 40.8222 539.995 40.8772V41.3707C539.995 42.087 539.389 42.3069 537.072 42.3069C535.803 42.3069 535.583 42.197 535.583 41.4807V41.1521C535.748 38.6775 535.803 35.9279 535.803 31.2V16.08H535.802Z" fill="#444444"/>
<path d="M570.991 7.33755C570.991 3.98443 570.881 2.33468 570.496 0.136381C574.247 0.354973 575.514 0.629932 575.514 1.23622C575.514 1.40119 575.46 1.56479 575.295 1.89474C574.964 2.66463 574.854 3.92806 574.854 7.00898V15.9713C574.854 17.621 574.909 20.8655 574.909 21.4141C574.964 21.909 574.964 22.2953 574.964 22.5153C574.964 23.2302 574.743 23.5051 574.137 23.5601C573.475 23.5601 572.813 23.6151 572.151 23.6701H571.601C570.882 23.6151 570.773 23.3951 570.773 22.5689C570.773 22.2953 570.773 21.9104 570.827 20.8655C570.937 18.9422 570.993 16.9061 570.993 15.8613V7.33893L570.991 7.33755ZM596.801 1.17985C596.801 1.34482 596.801 1.45343 596.637 1.78338C596.361 2.44329 596.251 3.76309 596.251 6.07274C596.251 6.62128 596.251 7.44616 596.306 8.54599V11.2406C596.306 20.1479 595.81 24.1059 594.155 28.4503C592.169 33.7295 588.144 38.1274 582.573 41.152C581.195 41.8669 580.367 42.2518 580.092 42.2518C579.835 42.2518 579.486 41.9764 579.044 41.4256C578.438 40.7107 577.831 40.2707 576.947 39.7772C580.808 37.9625 582.572 36.9176 584.559 35.2142C588.86 31.5848 591.176 26.8019 591.893 20.2042C592.168 17.5646 592.278 15.255 592.278 10.1971C592.278 5.35785 592.113 2.1697 591.783 -0.0849609C595.863 0.0800143 596.801 0.298607 596.801 1.17985Z" fill="#444444"/>
<path d="M629.075 15.6403C628.91 15.6403 628.689 15.5303 628.469 15.2567C626.042 12.6721 622.899 10.0875 619.534 8.0542C618.321 7.33793 618.266 7.28431 618.266 7.00935C618.266 6.73439 618.762 5.96451 619.645 4.97603C620.084 4.42612 620.362 4.25977 620.748 4.25977C622.292 4.31476 631.723 11.5173 631.723 12.6171C631.723 13.2757 629.682 15.6403 629.075 15.6403ZM655.602 12.7257C655.823 13.0557 655.878 13.2743 655.878 13.4956C655.878 14.7604 650.584 20.8631 645.897 25.0411C639.721 30.4853 633.488 34.2798 625.05 37.8515C623.452 38.5677 622.568 39.0063 621.852 39.5562C621.521 39.8312 621.301 39.9412 621.135 39.9412C620.473 39.9412 619.15 37.8501 618.267 35.4332C622.238 34.607 627.312 32.5187 632.219 29.7141C636.961 27.0209 640.933 24.1063 644.628 20.6968C648.433 17.1773 650.693 14.3727 654.004 9.20627C654.334 10.3061 654.609 10.9096 655.602 12.7257Z" fill="#444444"/>
<path d="M686.435 10.4172C684.173 13.4404 681.25 16.4099 678.052 19.1031C675.681 21.0278 674.467 21.8527 674.081 21.8527C673.805 21.8527 673.641 21.7427 673.364 21.5228C672.702 20.9192 671.875 20.4229 670.551 19.8194C676.176 16.4663 680.037 12.9468 683.732 7.83258C685.883 4.80941 687.04 2.55474 687.868 -0.469801C690.515 0.465058 692.28 1.45354 692.28 2.11481C692.28 2.33478 692.17 2.49975 691.784 2.8297C691.067 3.4896 690.901 3.71095 689.412 6.07422C689.081 6.62276 688.971 6.8441 688.807 7.06407C690.405 7.11906 694.321 7.11906 701.104 7.11906C702.869 7.11906 703.531 7.00908 704.357 6.67913C704.578 6.56914 704.909 6.51415 705.131 6.51415C705.516 6.51415 705.791 6.67913 706.565 7.55899C707.503 8.54885 708.218 9.59369 708.218 9.97863C708.218 10.3636 708.108 10.5835 707.613 11.0785C707.006 11.7384 706.674 12.1783 706.179 13.1132C699.891 25.0986 693.825 32.2462 684.449 38.6802C681.086 40.9898 677.006 43.2431 676.232 43.2431C675.958 43.2431 675.737 43.1332 675.515 42.9132C674.632 41.9783 673.86 41.4834 672.592 40.8799C681.25 37.0304 688.199 31.7526 694.211 24.4951C697.906 20.0971 701.049 14.8179 702.759 10.4199H686.435V10.4172ZM710.921 7.6676C710.7 7.6676 710.535 7.55762 710.369 7.22904C708.716 4.58944 707.887 3.5446 706.179 1.94984C706.069 1.72987 706.013 1.61988 706.013 1.5099C706.013 1.45491 706.068 1.3463 706.124 1.12633C706.729 0.521425 707.447 0.0264993 707.887 0.0264993C708.716 0.0264993 713.017 4.92076 713.017 5.90924C713.017 6.07422 712.962 6.18283 712.852 6.40279C712.135 7.06269 711.197 7.6676 710.921 7.6676ZM717.594 2.88332C717.594 3.15828 717.539 3.26826 716.933 3.65458C716.327 4.09314 715.609 4.42446 715.389 4.42446C715.223 4.42446 715.058 4.25949 714.892 3.92954C714.175 2.44614 712.686 0.576416 710.922 -1.12833C710.702 -1.34829 710.647 -1.51327 710.647 -1.62325C710.647 -1.67824 710.702 -1.84322 710.812 -2.0082C711.198 -2.44675 712.246 -2.99805 712.631 -2.99805C713.293 -2.99805 715.885 -0.0834842 717.428 2.33615C717.539 2.55612 717.594 2.71972 717.594 2.8847V2.88332Z" fill="#444444"/>
<path d="M733.9 8.53436C733.9 8.18241 733.9 7.83046 733.856 7.47852C736.59 8.04906 737.914 8.62097 737.914 9.19288C737.914 9.36886 737.872 9.54483 737.605 9.89815C737.076 10.778 736.679 12.1844 736.017 15.5293C735.988 15.7933 735.901 16.2474 735.754 16.8917C736.754 16.9504 738.106 16.9797 739.812 16.9797C740.606 16.9797 741.003 17.3023 741.003 17.9476C741.003 18.8274 740.915 19.4873 740.783 19.6193C740.65 19.7953 740.43 19.7953 738.179 19.7953C737.297 19.7953 736.723 19.7513 735.223 19.6193C734.339 24.1066 734.252 24.5892 733.722 28.286C735.443 28.462 736.236 28.5046 737.12 28.5046C737.65 28.5046 739.326 28.462 739.678 28.418H739.855C740.34 28.418 740.516 28.9459 740.516 30.6177C740.516 31.3656 740.472 31.3656 738.531 31.3656C736.766 31.3656 735.486 31.3216 733.412 31.103C733.28 32.5548 733.235 33.7426 733.235 34.7091C733.235 38.9764 735.443 41.0001 740.075 41.0001C745.15 41.0001 748.547 38.3165 748.547 34.3571C748.547 32.2468 747.797 30.0458 746.429 28.2434C745.679 27.2316 745.061 26.6156 743.561 25.3838H743.826C744.4 25.3838 745.15 25.2972 745.81 25.1212C746.384 24.9879 746.428 24.9879 746.56 24.9879C747.047 24.9879 747.575 25.4278 748.678 26.7036C750.664 29.0353 751.679 31.5429 751.679 34.3571C751.679 40.0323 747.224 43.7263 740.384 43.7263C737.12 43.7263 734.515 42.8918 732.796 41.2201C731.295 39.7243 730.545 37.5246 730.545 34.5771C730.545 33.8732 730.632 32.5987 730.764 30.707C726.177 29.7832 724.059 28.0234 724.059 25.2079C724.059 23.7121 724.897 22.0403 725.603 22.0403C725.78 22.0403 726.043 22.1269 726.44 22.3923C727.058 22.7442 727.279 22.9642 727.279 23.2282C727.279 23.3601 727.234 23.4467 727.102 23.6241C726.705 24.2386 726.528 24.6346 726.528 25.0759C726.528 26.3957 728.205 27.4515 731.073 27.9354C731.294 26.1757 731.426 25.3838 732.44 19.2687C729.75 18.7834 727.058 17.773 724.984 16.4092C724.366 16.0132 724.234 15.8373 724.234 15.5293C724.234 15.176 724.631 14.3415 725.204 13.3736C728.161 15.2214 730.013 15.9692 732.881 16.4958C733.631 12.2284 733.896 10.1621 733.896 8.53436H733.9Z" fill="#444444"/>
<path d="M776.789 38.182C776.789 41.8321 773.832 44.781 770.17 44.781C766.507 44.781 763.551 41.8321 763.551 38.182C763.551 34.5319 766.507 31.583 770.17 31.583C773.832 31.583 776.789 34.5306 776.789 38.182ZM766.066 38.182C766.066 40.4257 767.919 42.2734 770.17 42.2734C772.42 42.2734 774.273 40.4257 774.273 38.182C774.273 35.9384 772.42 34.0906 770.17 34.0906C767.919 34.0906 766.066 35.9384 766.066 38.182Z" fill="#444444"/>
</svg>
