<svg width="539" height="30" viewBox="0 0 539 30" fill="none" xmlns="http://www.w3.org/2000/svg">
<path d="M1.84298 17.0275C1.25907 17.1633 0.786039 17.2752 0.179666 17.4753L0 15.9962C0.0673748 16.0199 0.0884294 16.0199 0.13475 16.0199C0.450569 16.0199 1.03448 15.9304 1.66331 15.796L2.92098 15.5274V11.8987C2.92098 10.9359 2.89711 10.4867 2.80869 9.92693H4.40322C4.31479 10.4419 4.29093 10.8449 4.29093 11.8539V15.2363L7.81968 14.475C8.49203 14.3393 9.07734 14.1839 9.41422 14.0272L9.57143 15.4826C9.0998 15.5274 8.51589 15.6183 7.90811 15.7303L4.29093 16.5139V22.4726C4.29093 22.9428 4.44814 23.0786 4.98854 23.0786C5.32401 23.0786 6.11145 23.0114 6.44833 22.9666C7.14453 22.8309 7.39157 22.5188 7.57124 21.5098C7.68353 20.7933 7.72845 20.3231 7.77477 19.0902C8.22393 19.3813 8.58326 19.5171 9.07875 19.65C8.74188 23.8174 8.27025 24.3534 4.85379 24.3534C3.32663 24.3534 2.92238 24.0399 2.92238 22.8085V16.805L1.84298 17.0275ZM10.022 12.5018C9.10121 12.5018 8.38254 12.5466 7.97689 12.6138V11.1136C8.47238 11.2032 9.23455 11.248 10.314 11.248H17.5483C18.3358 11.248 19.0081 11.2256 19.5696 11.1598C19.5246 11.8464 19.4797 12.75 19.4348 13.8705C19.2551 19.8963 18.806 24.1533 18.1098 26.5043C17.6817 27.9373 17.0977 28.3851 15.6829 28.3851C15.0316 28.3851 13.9087 28.3179 12.9879 28.2298C12.943 27.6462 12.8517 27.2432 12.6721 26.7282C13.7964 26.9311 14.6933 27.0207 15.4583 27.0207C16.1096 27.0207 16.3791 26.9087 16.5812 26.5057C17.0304 25.6311 17.4346 23.4368 17.7266 20.5022C17.9301 18.2842 18.0185 16.1781 18.0635 12.5046H13.6378C13.4806 15.8646 13.4581 16.3138 13.1423 18.1498C12.6482 20.9934 11.6151 23.4354 10.1315 25.34C9.05208 26.7072 8.04286 27.6028 6.19988 28.8119C5.86301 28.3417 5.61456 28.094 5.05451 27.691C7.88565 26.1237 9.54757 24.3534 10.6943 21.6889C11.4804 19.8739 11.9071 17.9469 12.1317 15.2825C12.1616 14.9391 12.199 14.0132 12.244 12.5046H10.0192L10.022 12.5018Z" fill="#444444"/>
<path d="M30.5256 22.7609C30.5256 24.597 30.5929 27.0851 30.6814 28.0927V28.1822C30.6814 28.4495 30.5466 28.4957 29.7157 28.4957C29.1317 28.4957 29.1079 28.4733 29.1079 27.9373C29.1079 27.8478 29.1079 27.1747 29.1317 26.5477C29.1542 25.8312 29.1542 25.5849 29.1542 22.204C29.1542 21.6442 29.1542 21.2622 29.1767 20.8368C28.211 21.9339 27.0207 23.525 26.2122 24.7775C26.055 25.0252 25.9637 25.0923 25.8514 25.0923C25.6956 25.0923 25.5833 25.0028 25.2451 24.6445C24.8857 24.2639 24.7734 24.1072 24.7734 23.9728C24.7734 23.8833 25.1777 23.3757 25.9862 22.4503C27.0866 21.1964 28.2545 19.6277 29.2216 18.1261C29.2216 18.0379 29.244 17.32 29.2665 15.9766C28.0299 16.1333 26.7048 16.402 26.1209 16.6035C26.0536 16.6259 25.9637 16.6483 25.8963 16.6483C25.7616 16.6483 25.6942 16.5588 25.5819 16.1767C25.4921 15.8185 25.4247 15.4826 25.3784 15.0362C25.5356 15.0586 25.7391 15.0586 25.85 15.0586C26.5476 15.0586 28.232 14.8795 29.3114 14.7004C29.3404 13.4605 29.3549 12.7286 29.3549 12.5047C29.3549 12.027 29.3404 11.3399 29.3114 10.4434C30.4568 10.4671 31.2428 10.6673 31.2428 10.9583C31.2428 11.0479 31.2204 11.1151 31.1305 11.318C30.9747 11.6538 30.8624 12.4599 30.7501 14.4093C30.825 14.3794 30.9073 14.3421 30.9972 14.2973C31.0646 14.2525 31.1319 14.2525 31.1993 14.2525C31.4239 14.2749 32.0317 14.8571 32.0317 15.081C32.0317 15.1482 32.0092 15.1929 31.8969 15.3287C31.5811 15.7079 30.9972 16.5602 30.5929 17.2319C30.5929 17.32 30.5705 17.9484 30.5705 18.1051C31.4913 17.1423 32.165 16.5378 32.9061 15.9556C33.8059 15.2601 34.9063 14.4988 35.6699 14.0734C36.3226 13.7138 37.1072 13.5137 37.8048 13.5137C39.4906 13.5137 40.2991 14.5436 40.2991 16.6273C40.2991 16.896 40.2093 18.3752 40.0296 21.0187C39.9398 22.4293 39.8724 23.8189 39.8724 24.2443C39.8724 25.2967 40.1419 25.6773 40.9055 25.6773C41.9386 25.6773 43.1064 25.0056 44.051 23.8861C44.051 24.513 44.0735 24.7145 44.2532 25.1847C44.2981 25.3205 44.3219 25.3876 44.3219 25.4772C44.3219 25.6997 44.0524 25.9922 43.5134 26.3266C42.6137 26.9102 41.6705 27.2013 40.7483 27.2013C39.1762 27.2013 38.3677 26.3266 38.3677 24.6026C38.3677 23.9756 38.4351 22.6098 38.5712 20.4813C38.706 18.5109 38.7509 17.4348 38.7509 16.8764C38.7509 15.5092 38.4351 14.9718 37.6504 14.9718C36.6174 14.9718 35.4018 15.5988 33.3581 17.1899C32.638 17.7497 31.7622 18.5109 31.1572 19.1169C30.7754 19.4961 30.5733 19.699 30.5284 19.7214V22.7679L30.5256 22.7609Z" fill="#444444"/>
<path d="M54.6653 10.5095C54.6653 10.441 54.6653 10.2856 54.6414 10.1289C55.5412 10.2632 56.0577 10.3752 56.4619 10.5319C56.5967 10.5767 56.6416 10.6663 56.6416 10.7782C56.6266 10.8827 56.5443 11.0847 56.3946 11.3842C56.2748 11.623 56.0652 12.5112 55.7657 14.0486C56.8213 13.8471 58.2375 13.5113 58.8425 13.3098C58.9113 13.2874 58.9324 13.2874 58.9787 13.2874C59.0671 13.2874 59.091 13.3098 59.1345 13.4217C59.2033 13.6904 59.338 14.3397 59.338 14.4755C59.338 14.6546 59.3155 14.6994 59.1583 14.7218C59.1345 14.7218 59.0685 14.7441 58.9548 14.7889C58.3035 14.9457 56.3272 15.3487 55.4738 15.483C54.7327 19.0683 53.7206 22.4045 52.3493 25.6973C51.6531 27.4004 51.4285 27.8258 51.2488 27.8258C51.1141 27.8258 50.5975 27.6019 50.1933 27.3542C50.0136 27.2423 49.9462 27.1751 49.9462 27.0631C49.9462 26.975 49.9898 26.884 50.0585 26.7497C50.4179 26.1437 50.8221 25.3377 51.2039 24.3973C52.4166 21.5075 53.0904 19.3356 53.9228 15.7293C52.7549 15.8847 51.0467 16.0204 50.1484 16.0204C49.8115 16.0204 49.7441 15.9966 49.6992 15.7965C49.6108 15.4816 49.5644 15.0786 49.5195 14.5874C50.1044 14.6023 50.4338 14.6098 50.5077 14.6098C51.385 14.6098 52.9795 14.4755 54.2161 14.2963C54.553 12.5261 54.6653 11.5395 54.6653 10.5095ZM63.0226 26.4348C64.102 26.4348 64.7982 26.3676 66.1232 26.1213C66.213 26.1055 66.3029 26.0975 66.3927 26.0975C66.6397 26.0975 66.6847 26.1661 66.7282 26.6363C66.752 26.7706 66.752 26.8826 66.7731 26.9946C66.7969 27.1513 66.818 27.3304 66.818 27.4214C66.818 27.6229 66.7282 27.7124 66.526 27.7558C65.8298 27.8916 64.2339 28.0035 63.1334 28.0035C60.9761 28.0035 59.6061 27.6439 58.6404 26.8826C58.0565 26.4124 57.6073 25.7631 57.2915 24.9332C57.2241 24.7541 57.1792 24.554 57.1792 24.463C57.1792 24.2839 57.248 24.2391 58.3246 23.657C58.9773 25.7183 60.19 26.4334 63.0212 26.4334L63.0226 26.4348ZM59.8559 18.1475C59.811 18.1699 59.7661 18.1699 59.7437 18.1699C59.6089 18.1699 59.5191 18.1027 59.4966 17.9684C59.4517 17.8116 59.4068 17.3177 59.4068 16.9818C59.4068 16.7803 59.4742 16.7145 59.6763 16.6683C61.0013 16.3996 62.5973 16.2653 64.3939 16.2653C65.674 16.2653 66.2579 16.3101 66.3253 16.4444C66.3702 16.5116 66.3941 16.6473 66.3941 17.0266C66.3941 17.7207 66.3492 17.8774 66.1246 17.8774H66.0123C64.9568 17.7655 64.4164 17.7431 63.8774 17.7431C62.5973 17.7431 61.1361 17.9012 59.8559 18.1475Z" fill="#444444"/>
<path d="M77.2824 18.6843C76.6086 19.1993 76.2493 19.4022 76.1145 19.4022C76.0471 19.4022 75.9798 19.3784 75.8899 19.2903C75.6204 19.0216 75.2162 18.7753 74.7656 18.5724C77.7315 16.7811 79.5956 14.8765 81.1241 12.0553C81.4161 11.5166 81.6631 10.8896 81.8428 10.2627C82.8759 10.6223 83.5959 11.0478 83.5959 11.3165C83.5959 11.4046 83.551 11.4718 83.4163 11.5837C83.1692 11.7866 83.0345 11.9644 82.7201 12.4808C82.5628 12.7718 82.4506 12.951 82.247 13.242H85.6845C88.336 13.242 88.4048 13.242 88.7852 13.0867C88.875 13.0419 88.9424 13.0181 89.0322 13.0181C89.2133 13.0181 89.414 13.1973 89.8421 13.7122C90.0892 14.0271 90.2688 14.3182 90.2688 14.4511C90.2688 14.5631 90.2239 14.6079 90.0892 14.766C89.932 14.9003 89.7523 15.1914 89.4814 15.7288C87.9542 18.7081 86.785 20.4546 85.0108 22.4487C83.078 24.5982 81.3024 26.0326 78.4277 27.7805C77.6641 28.2507 77.3048 28.4074 77.1237 28.4074C76.989 28.4074 76.9006 28.3626 76.7883 28.2507C76.5188 27.9596 76.1145 27.6909 75.6429 27.4446C79.1702 25.6296 81.0792 24.2638 83.4836 21.777C82.2919 20.5008 81.3712 19.6947 80.1135 18.8215C80.0012 18.7319 79.9338 18.6647 79.9338 18.5976C79.9338 18.508 80.0237 18.3737 80.3619 18.0378C80.7002 17.7019 80.7423 17.6796 80.8785 17.6796C81.2589 17.6796 83.53 19.4708 84.5392 20.6141C84.9434 20.1439 85.46 19.4722 85.8881 18.8439C86.9675 17.2765 87.484 16.2899 88.1564 14.5645C85.4838 14.5883 85.4375 14.5883 81.3487 14.5883C80.0447 16.3123 78.832 17.5438 77.2824 18.6871V18.6843Z" fill="#444444"/>
<path d="M104.323 17.0273C104.254 17.0273 104.165 16.9825 104.074 16.872C103.086 15.8182 101.806 14.7658 100.435 13.936C99.939 13.6449 99.918 13.6225 99.918 13.5106C99.918 13.3986 100.121 13.0852 100.479 12.6821C100.659 12.4582 100.771 12.3896 100.929 12.3896C101.557 12.4134 105.399 15.3466 105.399 15.7958C105.399 16.0631 104.57 17.0273 104.323 17.0273ZM115.129 15.8406C115.219 15.9749 115.242 16.0631 115.242 16.1541C115.242 16.669 113.086 19.1558 111.177 20.8575C108.66 23.0755 106.121 24.6205 102.683 26.0758C102.032 26.3669 101.671 26.546 101.379 26.77C101.244 26.8819 101.155 26.9267 101.087 26.9267C100.819 26.9267 100.279 26.0758 99.9194 25.0907C101.536 24.7548 103.604 23.9026 105.604 22.7607C107.536 21.6635 109.154 20.4754 110.66 19.0872C112.21 17.6542 113.132 16.5109 114.479 14.4062C114.614 14.8526 114.726 15.1003 115.131 15.8392L115.129 15.8406Z" fill="#444444"/>
<path d="M127.901 14.2055C128.104 14.2727 128.193 14.3623 128.193 14.4966C128.193 14.5862 128.17 14.6309 128.081 14.7877C127.901 15.1235 127.857 15.3027 127.653 16.3788C127.093 19.3134 125.834 22.3375 124.262 24.5555C123.542 25.5631 122.98 26.1677 122.756 26.1677C122.688 26.1677 122.6 26.1439 122.509 26.0781C122.082 25.8318 121.7 25.6975 121.184 25.5631C122.351 24.3988 122.868 23.7719 123.521 22.7629C125.07 20.2776 126.126 16.8042 126.126 14.2069V13.8711C126.913 13.9606 127.473 14.0726 127.901 14.2055ZM133.429 13.8697C133.564 13.8249 133.676 13.7815 133.698 13.7353C133.766 13.6905 133.811 13.6682 133.833 13.6682C133.945 13.6905 134.035 13.7115 134.035 13.7353C134.171 13.8235 134.913 14.9892 135.429 15.8638C136.395 17.4549 136.979 18.6402 138.013 21.1046C138.686 22.7629 139.001 23.569 139.069 23.9048C139.204 24.487 139.293 24.8676 139.383 24.981C139.407 25.0257 139.428 25.0705 139.428 25.0929C139.428 25.1601 139.406 25.2049 139.406 25.2496C139.406 25.3616 139.248 25.4735 138.865 25.6751C138.731 25.7422 138.485 25.8318 138.079 25.9661C137.944 25.9661 137.741 25.5183 137.471 24.6227C136.349 20.9493 134.574 17.1639 132.821 14.7219C132.792 14.6771 132.755 14.595 132.709 14.4756C132.709 14.3637 133.113 14.0278 133.429 13.8697ZM137.877 14.6995C136.709 14.6995 135.766 13.7577 135.766 12.5934C135.766 11.4291 136.709 10.4873 137.877 10.4873C139.045 10.4873 139.99 11.4291 139.99 12.5934C139.99 13.7577 139.046 14.6995 137.877 14.6995ZM137.877 11.3605C137.205 11.3605 136.642 11.9203 136.642 12.5934C136.642 13.2665 137.203 13.8249 137.877 13.8249C138.551 13.8249 139.114 13.2665 139.114 12.5934C139.114 11.8993 138.573 11.3605 137.877 11.3605Z" fill="#444444"/>
<path d="M153.731 14.7873C152.81 16.0201 151.619 17.2292 150.316 18.3264C149.35 19.1114 148.855 19.4459 148.699 19.4459C148.587 19.4459 148.518 19.4025 148.407 19.3115C148.138 19.0652 147.799 18.8637 147.262 18.6174C149.552 17.2502 151.126 15.8172 152.631 13.7349C153.507 12.502 153.978 11.584 154.315 10.3525C155.394 10.7332 156.112 11.1376 156.112 11.4049C156.112 11.4945 156.068 11.5616 155.91 11.696C155.618 11.9647 155.55 12.0556 154.944 13.017C154.809 13.2409 154.764 13.3319 154.697 13.42C155.348 13.4438 156.944 13.4438 159.706 13.4438C160.426 13.4438 160.695 13.399 161.031 13.2647C161.121 13.2199 161.256 13.1961 161.347 13.1961C161.503 13.1961 161.615 13.2647 161.931 13.6229C162.312 14.026 162.604 14.4514 162.604 14.6081C162.604 14.7649 162.56 14.8544 162.356 15.0559C162.109 15.3246 161.975 15.5038 161.773 15.8844C159.211 20.7683 156.739 23.6791 152.92 26.3002C151.548 27.2406 149.887 28.1586 149.572 28.1586C149.46 28.1586 149.369 28.1152 149.28 28.0242C148.921 27.6436 148.606 27.4421 148.088 27.1958C151.616 25.6271 154.447 23.4776 156.895 20.5192C158.4 18.728 159.681 16.5771 160.377 14.7845H153.727L153.731 14.7873Z" fill="#444444"/>
<path d="M172.326 13.8244C172.078 15.5947 171.494 16.8723 170.349 18.1038C170.034 17.7008 169.787 17.4769 169.293 17.0948C170.64 15.8858 171.202 14.408 171.202 12.0332C171.202 11.4958 171.157 10.8689 171.09 10.3987C171.293 10.4211 171.449 10.4211 171.539 10.4211C172.28 10.4211 174.144 10.2419 175.089 10.0852C176.279 9.8837 176.885 9.68219 177.785 9.23438L178.751 10.3315C176.146 11.1166 175.358 11.2495 172.461 11.4524C172.461 12.0584 172.439 12.2809 172.416 12.6853H177.134C177.921 12.6853 178.37 12.6615 178.863 12.5734V13.9168C178.303 13.8496 177.897 13.8272 177.134 13.8272H176.258V14.881C176.258 15.284 176.303 15.8886 176.325 16.202H174.91C174.954 15.8438 174.999 15.305 174.999 14.902V13.8258L172.326 13.8244ZM176.953 26.7046C174.705 28.048 173.223 28.5868 170.392 29.1018C170.167 28.542 170.078 28.43 169.605 27.8255C171.268 27.645 172.054 27.4896 173.246 27.0866C174.256 26.7507 174.773 26.5045 175.83 25.8537L176.953 26.7046ZM183.76 16.647C184.793 16.647 185.469 16.6232 186.21 16.5575C186.12 17.2068 186.097 17.8337 186.097 18.9994V23.2774C186.097 24.5103 186.12 25.2268 186.21 25.697C185.626 25.6298 184.906 25.6088 183.896 25.6088H174.617C173.674 25.6088 172.843 25.6312 172.304 25.697C172.394 25.2044 172.416 24.4655 172.416 23.2564V19.0008C172.416 17.8351 172.394 17.3425 172.304 16.5589C173.024 16.626 173.696 16.6484 174.708 16.6484H183.762L183.76 16.647ZM173.74 19.2905H184.771V17.7456H173.74V19.2905ZM173.74 21.8668H184.771V20.3219H173.74V21.8668ZM173.74 24.4865H184.771V22.8968H173.74V24.4865ZM186.906 12.6825C187.693 12.6825 188.098 12.6587 188.659 12.5929V13.9364C188.074 13.8482 187.714 13.8244 186.906 13.8244H185.243V14.9006C185.243 15.3484 185.287 15.9095 185.332 16.2006H183.871C183.94 15.8648 183.961 15.3708 183.961 14.9244V13.8258H180.883C180.636 14.902 180.323 15.5513 179.558 16.5379C179.29 16.202 178.951 15.9109 178.502 15.6409C179.064 15.0811 179.29 14.7005 179.535 13.9616C179.739 13.3556 179.872 12.3257 179.872 11.3853C179.872 10.9584 179.848 10.6674 179.805 10.3553C180.073 10.4001 180.209 10.4001 180.411 10.4001C181.107 10.4001 182.479 10.2643 183.536 10.109C184.973 9.90609 185.849 9.66119 186.725 9.23438L187.69 10.3315C187.496 10.3772 187.039 10.5041 186.319 10.7121C184.903 11.0928 183.668 11.2719 181.13 11.451C181.085 12.0332 181.085 12.1451 181.04 12.6839H186.904L186.906 12.6825ZM182.48 25.9195C184.681 27.0852 186.052 27.5106 188.749 27.8689C188.434 28.2719 188.255 28.5868 188.03 29.1465C185.154 28.6078 183.672 28.0704 181.401 26.7046L182.48 25.9195Z" fill="#444444"/>
<path d="M202.417 21.5758C201.113 24.5313 199.633 26.0105 197.945 26.0105C196.957 26.0105 196.036 25.4507 195.406 24.4865C194.845 23.6581 194.508 22.2699 194.508 20.8579C194.508 17.9905 195.833 15.3694 198.125 13.7573C199.742 12.6154 201.673 12.0332 203.898 12.0332C208.795 12.0332 212.031 14.9901 212.031 19.4696C212.031 22.4252 210.638 24.8224 207.897 26.5478C206.931 27.1748 205.47 27.8255 205.09 27.8255C204.954 27.8255 204.865 27.7569 204.708 27.5568C204.439 27.1986 204.147 26.9509 203.72 26.706C205.449 26.191 206.28 25.8551 207.247 25.2268C209.336 23.8386 210.483 21.7773 210.483 19.4039C210.483 16.9395 209.225 14.9244 207.047 13.9378C206.282 13.5795 205.63 13.4228 204.506 13.3556C204.126 16.5141 203.428 19.2681 202.417 21.5758ZM199.901 14.2723C197.474 15.4813 195.969 18.0129 195.969 20.9488C195.969 22.964 196.8 24.3984 197.99 24.3984C198.935 24.3984 199.946 23.2774 200.911 21.1279C201.923 18.8651 202.641 16.1768 202.955 13.4452C201.787 13.5572 200.844 13.8034 199.899 14.2737L199.901 14.2723Z" fill="#444444"/>
<path d="M217.757 18.9082C218.161 18.9754 218.61 18.9978 219.061 18.9978C219.173 18.9978 219.24 18.9978 219.577 18.974C220.137 18.2575 220.498 17.7649 221.015 17.0246C219.733 15.4797 219.173 14.8751 217.89 13.7318L218.699 12.769C219.103 13.172 219.284 13.3288 219.531 13.5751C220.676 11.851 221.419 10.327 221.62 9.36426L222.968 9.92262C222.787 10.1913 222.699 10.3256 222.519 10.7077C221.711 12.2988 221.283 13.0377 220.339 14.4259C220.968 15.12 220.991 15.1424 221.711 15.9932C223.283 13.5289 223.486 13.193 223.822 12.275L225.079 13.0139C224.826 13.3572 224.354 14.0667 223.665 15.1424C222.924 16.3081 221.889 17.7187 220.944 18.9278C222.202 18.8844 223.237 18.7935 224.337 18.6605C224.045 17.9426 223.91 17.6515 223.506 16.9127L224.518 16.4425C225.258 17.8097 225.619 18.6157 226.225 20.3398L225.102 20.8548C224.945 20.3174 224.877 20.1159 224.765 19.7577C224.045 19.8458 223.82 19.8696 222.72 19.9592V26.8359C222.72 27.7777 222.744 28.3598 222.832 28.9867H221.305C221.394 28.3374 221.44 27.7539 221.44 26.8359V20.0711C221.32 20.0711 221.155 20.079 220.944 20.0949C220.564 20.1173 220.001 20.1621 219.26 20.1831C218.631 20.2278 218.362 20.2516 217.957 20.295L217.754 18.9068L217.757 18.9082ZM220.294 21.7546C219.98 24.7563 219.711 26.0326 219.037 27.8014L217.847 27.1969C218.61 25.449 218.857 24.2847 219.059 21.4845L220.294 21.7546ZM224.811 21.4173C225.238 22.8503 225.508 24.128 225.8 26.1669L224.608 26.5028C224.451 24.5982 224.227 23.3667 223.754 21.7308L224.811 21.4173ZM228.024 14.0481C227.125 14.0481 226.451 14.0929 225.844 14.1838V12.7046C226.428 12.7928 227.057 12.839 228.024 12.839H230.676V11.3598C230.676 10.6433 230.631 10.1283 230.54 9.59096H232.089C232.001 10.1283 231.977 10.6433 231.977 11.3822V12.8376H235.055C236.021 12.8376 236.651 12.7928 237.256 12.7032V14.1824C236.65 14.0929 235.931 14.0467 235.055 14.0467H231.977V17.3619H234.494C235.437 17.3619 236.09 17.3171 236.674 17.2275V18.6829C236.045 18.5947 235.37 18.5486 234.516 18.5486H228.676C227.888 18.5486 227.147 18.5933 226.541 18.6829V17.2275C227.125 17.3157 227.776 17.3619 228.697 17.3619H230.674V14.0467H228.023L228.024 14.0481ZM228.248 28.9224H226.81C226.879 28.4284 226.922 27.8014 226.922 26.861V22.6726C226.922 21.798 226.9 21.3278 226.834 20.7232C227.328 20.7904 227.822 20.8114 228.474 20.8114H234.315C235.103 20.8114 235.551 20.789 236.024 20.7232C235.979 21.283 235.955 21.7756 235.955 22.716V26.8163C235.955 27.6223 235.979 28.4284 236.045 28.9224H234.607V27.7133H228.249L228.248 28.9224ZM228.248 26.5028H234.606V22.0443H228.248V26.5028Z" fill="#444444"/>
<path d="M252.437 9.56738C253.337 11.0242 254.325 12.0989 255.987 13.4647C257.828 14.9649 259.851 16.1754 261.896 16.9814C261.514 17.453 261.288 17.8113 261.043 18.3487C258.885 17.2963 256.705 15.8843 254.954 14.3841C253.606 13.2422 252.617 12.1675 251.651 10.7779C250.167 12.8168 248.998 14.0259 247.113 15.4813C245.652 16.6022 244.28 17.4307 242.529 18.2815C242.304 17.7665 242.124 17.5426 241.629 17.05C243.854 16.0634 245.718 14.8767 247.516 13.308C249.02 11.987 249.875 11.0242 250.819 9.56738H252.436H252.437ZM244.909 28.7868C244.999 28.1165 245.045 27.5106 245.045 26.6583V21.9325C245.045 21.1027 245.021 20.5205 244.933 19.9608C245.36 20.0293 245.854 20.0503 246.596 20.0503H256.75C257.491 20.0503 257.987 20.0279 258.414 19.9608C258.325 20.5205 258.301 21.0593 258.301 21.9325V26.6583C258.301 27.5316 258.346 28.1585 258.437 28.7868H256.888V27.533H246.462V28.7868H244.912H244.909ZM246.46 26.2553H256.886V21.3504H246.46V26.2553ZM246.617 16.1082C247.022 16.1754 247.517 16.1978 248.326 16.1978H254.999C255.852 16.1978 256.346 16.174 256.818 16.1082V17.565C256.346 17.4964 255.807 17.4754 255.021 17.4754H248.303C247.607 17.4754 247.113 17.4978 246.619 17.565L246.617 16.1082Z" fill="#444444"/>
<path d="M270.693 23.2996C271.037 22.5076 271.254 22.0145 271.344 21.8204C271.434 22.1115 271.547 22.313 271.815 22.7161C271.884 22.8056 271.905 22.8966 271.905 22.9848C271.905 23.1205 271.883 23.2087 271.589 23.8356C271.185 24.776 270.601 26.5238 270.445 27.3075C270.401 27.5748 270.356 27.6868 270.288 27.7539C270.221 27.7987 269.817 27.8435 269.367 27.8435C269.076 27.8435 268.963 27.7763 268.896 27.5286C268.4 25.6478 268.176 23.7208 268.176 21.5266C268.176 19.2203 268.445 16.756 268.984 14.0677C269.188 13.0588 269.254 12.5228 269.321 11.5586C270.489 11.8049 271.23 12.1184 271.23 12.3437C271.23 12.4108 271.185 12.5228 271.073 12.7229C270.85 13.0825 270.737 13.417 270.534 14.2021C269.86 17.0247 269.546 19.3323 269.546 21.5727C269.546 22.7371 269.613 23.9014 269.77 25.3344L270.691 23.2968L270.693 23.2996ZM279.791 25.4281C280.983 25.4281 281.791 25.3162 283.499 24.9579C283.543 24.9341 283.588 24.9341 283.634 24.9341C283.746 24.9341 283.791 24.9789 283.814 25.0909C283.859 25.2476 283.971 26.1432 283.971 26.3671C283.971 26.5238 283.926 26.57 283.499 26.6358C282.555 26.8373 281.05 26.9717 280.017 26.9717C277.657 26.9717 276.332 26.6358 275.299 25.7626C274.76 25.3148 274.087 24.3954 274.087 24.1043C274.087 23.9475 274.558 23.5655 275.166 23.2296C275.952 24.7984 277.255 25.4253 279.794 25.4253L279.791 25.4281ZM275.882 13.466C276.533 13.5555 277.635 13.6227 278.466 13.6227C279.882 13.6227 281.363 13.4884 282.6 13.2645C282.659 13.2486 282.711 13.2407 282.757 13.2407C282.869 13.2407 282.913 13.2855 282.936 13.3974C282.981 13.5541 283.025 14.1587 283.025 14.4945C283.025 14.6975 282.981 14.7632 282.733 14.8094C281.745 14.9647 279.902 15.1005 278.554 15.1005C277.297 15.1005 275.813 14.9885 275.364 14.8766C275.252 14.8528 275.229 14.787 275.207 14.6079V14.2497C275.207 13.6675 275.296 13.4198 275.499 13.4198C275.567 13.4198 275.702 13.4436 275.88 13.4646L275.882 13.466Z" fill="#444444"/>
<path d="M293.558 12.7929C292.704 12.7929 292.074 12.8377 291.445 12.9287V11.5838C292.052 11.6734 292.637 11.7196 293.558 11.7196H296.613C296.142 10.9569 295.714 10.4195 294.972 9.63586L296.185 9.18945C296.973 10.0851 297.467 10.7568 298.027 11.721H301.668C302.499 10.8911 303.038 10.197 303.644 9.21184L304.924 9.70583C304.138 10.691 303.689 11.1836 303.105 11.721H306.429C307.35 11.721 307.935 11.6762 308.541 11.5852V12.9301C307.98 12.8405 307.284 12.7943 306.429 12.7943H300.476V14.2959H305.71C306.654 14.2959 307.103 14.2721 307.598 14.1839V15.4602C307.082 15.393 306.633 15.3706 305.71 15.3706H300.476V16.8946H307.306C308.294 16.8946 308.856 16.8722 309.441 16.7826V18.1499C308.812 18.0603 308.228 18.0141 307.306 18.0141H296.612C296.408 18.7992 296.342 18.9559 296.208 19.3813H305.532C306.161 19.3813 306.812 19.3589 307.487 19.2932C307.42 19.9425 307.398 20.3007 307.398 20.9948V27.1326C307.398 27.9177 307.442 28.4537 307.534 29.0596H306.05V28.0297H296.456V29.0596H294.996C295.085 28.4775 295.131 27.8715 295.131 27.1564V23.9532C295.131 23.2143 295.198 21.9828 295.288 21.556C294.119 24.1099 292.951 25.8116 291.155 27.4699C290.818 26.9549 290.547 26.6862 290.098 26.328C291.581 25.1189 292.48 24.0875 293.334 22.6993C294.278 21.132 294.817 19.7872 295.266 18.0169H292.661C291.695 18.0169 291.244 18.0407 290.548 18.1527V16.7854C291.132 16.875 291.694 16.8974 292.661 16.8974H299.176V15.3734H294.346C293.426 15.3734 292.975 15.3972 292.459 15.463V14.1867C292.954 14.2749 293.403 14.2987 294.346 14.2987H299.176V12.7971H293.56L293.558 12.7929ZM296.455 20.4757V21.9087H306.049V20.4757H296.455ZM296.455 22.94V24.3968H306.049V22.94H296.455ZM296.455 25.4282V26.9283H306.049V25.4282H296.455Z" fill="#444444"/>
<path d="M328.953 10.6212C329.965 10.6212 330.57 10.5974 331.2 10.5092C331.111 11.1138 331.087 11.6959 331.087 12.4796V26.524C331.087 27.5092 331.111 28.1585 331.224 28.8092H329.65V27.3763H318.529V28.8092H316.957C317.045 28.1823 317.092 27.5316 317.092 26.5912V12.6363C317.092 11.7617 317.047 11.1571 316.979 10.5078C317.653 10.596 318.305 10.6198 319.293 10.6198H328.954L328.953 10.6212ZM329.65 15.638V11.9422H318.529V15.638H329.65ZM318.529 20.7907H329.65V16.9381H318.529V20.7907ZM318.529 26.0552H329.65V22.0907H318.529V26.0552Z" fill="#444444"/>
<path d="M345.01 25.8307C345.01 27.6891 343.504 29.1893 341.64 29.1893C339.776 29.1893 338.27 27.6891 338.27 25.8307C338.27 23.9723 339.776 22.4707 341.64 22.4707C343.504 22.4707 345.01 23.9709 345.01 25.8307ZM339.55 25.8307C339.55 26.9726 340.493 27.913 341.638 27.913C342.784 27.913 343.727 26.9726 343.727 25.8307C343.727 24.6888 342.784 23.747 341.638 23.747C340.493 23.747 339.55 24.6888 339.55 25.8307Z" fill="#444444"/>
<path d="M378.314 23.8811C378.224 23.9557 378.037 24.1274 377.752 24.3961C377.034 25.0902 375.685 26.0543 374.608 26.6575C376.676 27.2634 378.965 27.5755 382.269 27.6665C382.022 28.0695 381.774 28.5397 381.596 29.0099C377.484 28.6516 375.462 28.2486 373.238 27.3306C371.148 28.2276 369.441 28.7188 366.812 29.1219C366.588 28.6516 366.408 28.4054 366.049 27.9575C368.137 27.8008 369.733 27.4636 371.846 26.6575C370.609 25.9872 369.891 25.4484 368.834 24.417C367.598 26.2321 366.07 27.5979 363.712 29.0757C363.42 28.6964 363.173 28.4487 362.656 28.0457C365.8 26.3664 367.532 24.6871 368.858 21.9989H365.173C364.273 21.9989 363.623 22.0436 362.993 22.1332V20.745C363.487 20.8346 364.161 20.8793 365.173 20.8793H369.352C369.555 20.2972 369.621 20.0299 369.733 19.4464L371.148 19.6703C371.014 19.9851 370.992 20.0509 370.88 20.321C370.79 20.5449 370.768 20.6344 370.656 20.8793H379.889C380.922 20.8793 381.53 20.836 382.046 20.745V22.1332C381.395 22.045 380.766 21.9989 379.889 21.9989H370.184C369.98 22.4467 369.868 22.693 369.599 23.1632H375.644C376.542 23.1632 377.104 23.1408 377.576 23.075L378.317 23.8811H378.314ZM371.642 15.4804C372.654 15.4804 372.967 15.458 373.439 15.3923V16.5566C372.967 16.4894 372.608 16.4684 371.642 16.4684H367.643C367.215 17.2969 366.946 17.7895 366.542 18.4178C368.182 18.3058 369.597 18.1491 370.542 17.991C370.226 17.6551 370.114 17.5432 369.666 17.1177L370.609 16.6028C371.553 17.4984 372.25 18.2611 373.036 19.3134L372.048 19.9627C371.689 19.4044 371.553 19.2252 371.284 18.8656C369.98 19.0895 366.139 19.5163 364.544 19.6045C364.275 19.6283 363.779 19.694 363.555 19.7402L363.375 18.5073C363.644 18.5521 363.847 18.5521 364.049 18.5521C364.228 18.5521 364.745 18.5283 365.149 18.5073C365.598 17.8132 365.981 17.1639 366.317 16.4698H364.88C363.981 16.4698 363.6 16.4922 363.016 16.5804V15.3713C363.555 15.4608 363.936 15.4832 364.836 15.4832H364.992V11.5187C364.992 10.7798 364.969 10.3096 364.903 9.79464C365.51 9.86181 365.937 9.88421 366.7 9.88421H370.701C371.531 9.88421 372.115 9.83942 372.699 9.74846V10.9575C372.093 10.8904 371.734 10.8694 370.768 10.8694H366.206V11.7874H370.564C371.464 11.7874 371.71 11.7636 372.181 11.7202V12.795C371.755 12.7278 371.442 12.7068 370.564 12.7068H366.206V13.6472H370.564C371.485 13.6472 371.734 13.6248 372.181 13.559V14.6338C371.687 14.5666 371.463 14.5666 370.564 14.5666H366.206V15.4846H371.644L371.642 15.4804ZM370.114 24.1721C370.967 24.9572 371.844 25.5156 373.147 26.0977C373.238 26.0529 373.381 25.9858 373.575 25.8962C374.541 25.4484 375.349 24.911 376.248 24.1721H370.114ZM380.718 10.4188C380.673 10.4188 380.629 10.4412 380.606 10.4636C380.247 10.5979 379.955 10.7322 378.697 11.3368C377.326 11.9861 375.888 12.4577 373.776 12.9489C373.574 12.4339 373.506 12.322 373.17 11.8518C375.641 11.404 377.122 10.9338 378.898 9.99336C379.257 9.79044 379.482 9.63371 379.751 9.43359L380.717 10.4188H380.718ZM381.977 16.7133C381.692 16.8626 381.123 17.1537 380.269 17.5865C378.652 18.4164 376.293 19.1987 374 19.6689C373.843 19.2224 373.664 18.8852 373.372 18.4822C374.855 18.2583 375.776 18.0553 377.034 17.6313C378.922 16.9806 380.29 16.3103 381.099 15.6162L381.976 16.7133H381.977ZM381.393 13.4191C381.1 13.5311 380.765 13.6878 380.473 13.8459C378.248 15.0774 377.372 15.3909 374.182 16.1745C373.979 15.6819 373.89 15.5042 373.575 15.0774C376.002 14.6744 377.574 14.137 379.595 13.0399C379.911 12.8607 380.179 12.6816 380.428 12.4339L381.393 13.4191Z" fill="#444444"/>
<path d="M389.63 14.6076C388.799 14.6076 388.058 14.6523 387.27 14.7419V13.1746C388.034 13.2865 388.687 13.3313 389.63 13.3313H395.674V11.4953C395.674 10.8012 395.629 10.3072 395.517 9.5459H397.225C397.113 10.1504 397.068 10.8222 397.068 11.4953V13.3313H403.449C404.528 13.3313 405.224 13.2865 405.853 13.1746V14.7419C404.932 14.6537 404.304 14.6076 403.449 14.6076H397.608C400.011 18.9303 402.91 21.9544 406.505 23.9262C406.033 24.3964 405.808 24.7099 405.516 25.3144C403.765 24.1501 402.416 23.0292 401.023 21.5514C399.227 19.6482 398.013 17.8332 396.979 15.4808C397.047 16.6899 397.068 17.5645 397.068 18.281V23.1873H399.427C400.484 23.1873 400.956 23.1635 401.517 23.0754V24.5755C400.865 24.4636 400.348 24.4412 399.382 24.4412H397.068V26.5025C397.068 27.5101 397.113 28.2714 397.225 28.9655H395.517C395.629 28.2042 395.674 27.4429 395.674 26.4801V24.4426H393.606C392.618 24.4426 392.057 24.465 391.427 24.5769V23.0768C391.967 23.1649 392.46 23.1887 393.562 23.1887H395.674V18.3062C395.674 17.4763 395.696 16.6927 395.764 15.5284C394.774 17.8584 393.606 19.6286 391.698 21.7333C390.326 23.2335 389.158 24.2649 387.585 25.3396C387.249 24.7574 387.091 24.5559 386.574 24.0857C388.438 22.9886 389.989 21.6452 391.63 19.7182C393.247 17.8598 394.147 16.5597 395.135 14.6117H389.63V14.6076Z" fill="#444444"/>
<path d="M423.118 18.8192C424.355 16.9594 424.939 15.8399 425.68 13.8919L427.005 14.4293C426.264 16.1085 425.589 17.3176 424.625 18.8206H427.814C429.071 18.8206 429.655 18.7758 430.196 18.6848V20.2088C429.522 20.1192 428.824 20.0731 427.769 20.0731H421.792C423.208 21.7537 423.59 22.1792 424.625 23.0524C426.511 24.6883 428.242 25.7644 430.465 26.7034C430.061 27.1289 429.814 27.4647 429.522 28.0035C427.364 26.9274 425.68 25.8078 424.084 24.3524C422.961 23.3435 422.22 22.4493 421.052 20.7462C421.12 21.8433 421.141 22.5164 421.141 23.0762V26.9288C421.141 27.802 421.186 28.4079 421.275 29.0111H419.636C419.748 28.3617 419.793 27.802 419.793 26.9288V23.0986C419.793 22.4269 419.793 22.1358 419.861 20.7924C418.489 22.8985 417.547 23.9956 415.817 25.4062C414.58 26.4362 413.39 27.2212 411.951 28.0273C411.637 27.4451 411.479 27.266 411.008 26.7734C413.233 25.6973 415.231 24.3091 416.985 22.585C417.538 22.0616 418.265 21.2252 419.164 20.0759H413.547C412.694 20.0759 412.02 20.1206 411.21 20.2116V18.6877C411.951 18.7772 412.536 18.8234 413.547 18.8234H419.793V13.1782H414.625C413.772 13.1782 413.096 13.223 412.333 13.3125V11.79C413.053 11.9019 413.749 11.9467 414.67 11.9467H419.792V11.2512C419.792 10.5137 419.747 10.0421 419.656 9.45996H421.252C421.163 9.99873 421.139 10.378 421.139 11.2512V11.9467H426.62C427.878 11.9467 428.462 11.9019 429.025 11.79V13.3125C428.374 13.2244 427.7 13.1782 426.665 13.1782H421.138V18.8234H423.114L423.118 18.8192ZM415.278 13.8681C416.198 15.3249 416.558 15.9966 417.413 17.8326L416.2 18.4833C415.481 16.7131 415.077 15.907 414.111 14.4293L415.279 13.8695L415.278 13.8681Z" fill="#444444"/>
<path d="M443.847 21.5758C442.543 24.5313 441.062 26.0105 439.375 26.0105C438.387 26.0105 437.466 25.4507 436.836 24.4865C436.274 23.6581 435.938 22.2699 435.938 20.8579C435.938 17.9905 437.263 15.3694 439.555 13.7573C441.172 12.6154 443.103 12.0332 445.328 12.0332C450.225 12.0332 453.461 14.9901 453.461 19.4696C453.461 22.4252 452.068 24.8224 449.327 26.5478C448.361 27.1748 446.9 27.8255 446.52 27.8255C446.383 27.8255 446.295 27.7569 446.138 27.5568C445.868 27.1986 445.576 26.9509 445.15 26.706C446.879 26.191 447.71 25.8551 448.677 25.2268C450.766 23.8386 451.912 21.7773 451.912 19.4039C451.912 16.9395 450.655 14.9244 448.476 13.9378C447.711 13.5795 447.06 13.4228 445.936 13.3556C445.555 16.5141 444.858 19.2681 443.847 21.5758ZM441.33 14.2723C438.903 15.4813 437.399 18.0129 437.399 20.9488C437.399 22.964 438.23 24.3984 439.42 24.3984C440.365 24.3984 441.375 23.2774 442.341 21.1279C443.353 18.8651 444.07 16.1768 444.385 13.4452C443.217 13.5572 442.273 13.8034 441.329 14.2737L441.33 14.2723Z" fill="#444444"/>
<path d="M463.92 20.0296C464.64 20.0296 465.134 20.0058 465.538 19.9611C465.493 20.3417 465.493 20.4998 465.469 20.991C465.357 24.5539 464.998 26.9273 464.414 27.8005C464.01 28.3827 463.493 28.6066 462.414 28.6066C461.718 28.6066 460.999 28.5618 460.145 28.4946C460.101 27.8677 460.056 27.6214 459.898 27.084C460.797 27.2184 461.695 27.3079 462.301 27.3079C463.043 27.3079 463.29 27.1512 463.471 26.6362C463.875 25.4271 464.077 23.6569 464.122 21.2149H461.246C460.638 21.2149 460.122 21.2387 459.786 21.2597C460.213 19.4685 460.437 17.5415 460.505 15.2129C461.044 15.28 461.381 15.301 462.572 15.301H464.236V11.7843H461.696C460.864 11.7843 460.259 11.8067 459.719 11.8725V10.4395C460.168 10.5291 460.776 10.5752 461.741 10.5752H464.189C464.706 10.5752 465.155 10.5514 465.606 10.5081C465.561 11.023 465.538 11.4261 465.538 12.0306V14.8532C465.538 15.5249 465.561 16.0413 465.606 16.5563C465.178 16.5115 464.661 16.4891 464.077 16.4891H461.764C461.719 17.2504 461.472 19.1536 461.315 20.0282L463.92 20.0296ZM471.491 15.2577C470.57 15.3472 470.391 15.3472 467.739 15.4816C467.155 15.5053 466.751 15.5501 466.414 15.5935L466.19 14.2053C466.594 14.2501 466.818 14.2501 467.2 14.2501C467.35 14.2501 467.665 14.2421 468.145 14.2263C469.268 12.5022 469.92 11.2246 470.458 9.65723L471.942 10.0365C470.93 12.0306 470.437 12.8815 469.537 14.1815C471.762 14.1129 473.65 13.9786 475.694 13.7547C474.997 12.8815 474.571 12.4113 473.514 11.3141L474.526 10.6872C476.122 12.2769 477.245 13.6217 478.66 15.5487L477.559 16.3772C477.064 15.6159 476.998 15.5263 476.48 14.8098C474.996 14.989 473.761 15.1009 472.75 15.1681V17.5415H475.986C476.749 17.5415 477.177 17.5191 477.67 17.4533C477.603 17.8787 477.582 18.237 477.582 18.8639V21.5298C477.582 22.2463 477.604 22.6717 477.67 23.1881C477.11 23.1209 476.569 23.0985 475.851 23.0985H472.75V26.3689C474.054 26.1898 475.131 26.0331 476.075 25.854C475.604 25.1599 475.447 24.936 474.818 24.1523L475.851 23.5925C477.356 25.5419 478.076 26.6152 479.019 28.3421L477.851 28.9467C477.447 28.0734 477.266 27.7586 476.706 26.8643C473.38 27.5137 470.886 27.8495 466.752 28.2316C466.437 28.2539 466.279 28.2749 465.987 28.3435L465.719 26.8419C465.987 26.8657 466.124 26.8657 466.303 26.8657C467.202 26.8657 469.336 26.73 471.492 26.5075V23.1013H468.751C467.899 23.1013 467.404 23.1251 466.82 23.1909C466.887 22.6311 466.908 22.1819 466.908 21.4668V19.0472C466.908 18.4217 466.886 17.9501 466.82 17.4575C467.381 17.5247 467.83 17.5457 468.708 17.5457H471.492V15.2605L471.491 15.2577ZM468.143 18.6848V21.9552H471.491V18.6848H468.143ZM472.75 21.9552H476.322V18.6848H472.75V21.9552Z" fill="#444444"/>
<path d="M491.726 11.9868C491.344 10.9344 491.232 10.6209 490.963 10.1731C491.771 9.994 492.13 9.94922 492.626 9.94922C492.85 9.94922 492.963 10.0374 492.963 10.2627V10.4418C493.03 11.1597 493.298 12.0329 493.996 13.8018C495.77 13.3988 497.748 12.7494 499.432 11.9868C499.522 11.9434 499.567 11.9434 499.612 11.9434C499.679 11.9434 499.724 12.0105 499.86 12.3464C499.995 12.6823 500.128 13.1525 500.128 13.242C500.128 13.3988 500.016 13.4449 498.757 13.8927C497.005 14.5197 496.713 14.6092 494.578 15.1242C495.611 17.3423 497.655 19.7829 499.274 20.7247C499.453 20.8366 499.522 20.9038 499.522 20.9709C499.522 21.1053 499.318 21.5979 499.094 22.0009C498.892 22.3592 498.779 22.4949 498.622 22.4949C498.532 22.4949 498.443 22.4501 498.151 22.271C497.071 21.5531 494.442 20.9038 492.623 20.9038C489.927 20.9038 488.265 21.9113 488.265 23.5249C488.265 25.4742 491.118 26.7267 495.544 26.7267C495.881 26.7267 496.242 26.7043 496.668 26.6833C496.511 27.0192 496.309 27.5118 496.197 27.8029C496.061 28.176 495.814 28.3626 495.456 28.3626C494.108 28.3626 491.973 28.0715 490.716 27.7133C488.131 26.9954 486.67 25.5176 486.67 23.613C486.67 21.1277 488.895 19.6261 492.557 19.6261C494.197 19.6261 495.589 19.8934 497.05 20.4546C495.387 19.2231 494.241 17.7215 493.117 15.4377C490.982 15.8169 487.883 16.1542 486.332 16.1542C485.928 16.1542 485.905 16.087 485.748 15.0123C485.726 14.8108 485.726 14.7884 485.703 14.6316H486.332C488.265 14.6316 490.69 14.4301 492.533 14.0943C492.286 13.4897 492.039 12.8628 491.725 11.9882L491.726 11.9868Z" fill="#444444"/>
<path d="M512.118 23.2996C512.463 22.5076 512.68 22.0145 512.77 21.8204C512.859 22.1115 512.973 22.313 513.241 22.7161C513.31 22.8056 513.331 22.8966 513.331 22.9848C513.331 23.1205 513.309 23.2087 513.015 23.8356C512.611 24.776 512.027 26.5238 511.871 27.3075C511.826 27.5748 511.781 27.6868 511.714 27.7539C511.647 27.7987 511.242 27.8435 510.793 27.8435C510.501 27.8435 510.389 27.7763 510.322 27.5286C509.826 25.6478 509.602 23.7208 509.602 21.5266C509.602 19.2203 509.871 16.756 510.41 14.0677C510.614 13.0588 510.68 12.5228 510.747 11.5586C511.915 11.8049 512.656 12.1184 512.656 12.3437C512.656 12.4108 512.611 12.5228 512.499 12.7229C512.275 13.0825 512.163 13.417 511.96 14.2021C511.286 17.0247 510.971 19.3323 510.971 21.5727C510.971 22.7371 511.039 23.9014 511.196 25.3344L512.117 23.2968L512.118 23.2996ZM521.217 25.4281C522.408 25.4281 523.217 25.3162 524.925 24.9579C524.969 24.9341 525.014 24.9341 525.06 24.9341C525.172 24.9341 525.217 24.9789 525.24 25.0909C525.284 25.2476 525.397 26.1432 525.397 26.3671C525.397 26.5238 525.352 26.57 524.925 26.6358C523.98 26.8373 522.476 26.9717 521.443 26.9717C519.083 26.9717 517.758 26.6358 516.725 25.7626C516.186 25.3148 515.512 24.3954 515.512 24.1043C515.512 23.9475 515.984 23.5655 516.592 23.2296C517.378 24.7984 518.68 25.4253 521.22 25.4253L521.217 25.4281ZM517.308 13.466C517.959 13.5555 519.061 13.6227 519.892 13.6227C521.308 13.6227 522.789 13.4884 524.025 13.2645C524.084 13.2486 524.137 13.2407 524.183 13.2407C524.295 13.2407 524.338 13.2855 524.362 13.3974C524.407 13.5541 524.451 14.1587 524.451 14.4945C524.451 14.6975 524.407 14.7632 524.159 14.8094C523.171 14.9647 521.328 15.1005 519.98 15.1005C518.722 15.1005 517.239 14.9885 516.79 14.8766C516.677 14.8528 516.655 14.787 516.632 14.6079V14.2497C516.632 13.6675 516.722 13.4198 516.924 13.4198C516.993 13.4198 517.128 13.4436 517.306 13.4646L517.308 13.466Z" fill="#444444"/>
<path d="M538.15 25.8309C538.15 27.6893 536.646 29.1895 534.78 29.1895C532.915 29.1895 531.41 27.6893 531.41 25.8309C531.41 23.9725 532.916 22.4709 534.78 22.4709C536.644 22.4709 538.15 23.9711 538.15 25.8309ZM532.69 25.8309C532.69 26.9728 533.633 27.9132 534.779 27.9132C535.924 27.9132 536.867 26.9728 536.867 25.8309C536.867 24.689 535.924 23.7472 534.779 23.7472C533.633 23.7472 532.69 24.689 532.69 25.8309Z" fill="#444444"/>
<path d="M225.08 1.295C225.08 0.757438 225.062 0.493066 225 0.140569C225.6 0.175819 225.803 0.219879 225.803 0.316816C225.803 0.343253 225.794 0.369688 225.769 0.422563C225.716 0.545937 225.698 0.748626 225.698 1.24212V2.67854C225.698 2.94291 225.707 3.46138 225.707 3.55097C225.716 3.63029 225.716 3.69197 225.716 3.72575C225.716 3.84032 225.682 3.88438 225.583 3.89319C225.477 3.89319 225.371 3.902 225.265 3.91081H225.177C225.062 3.902 225.043 3.86822 225.043 3.73457C225.043 3.69197 225.043 3.63029 225.053 3.46138C225.071 3.15295 225.08 2.82688 225.08 2.65945V1.295ZM229.215 0.308003C229.215 0.33444 229.215 0.350594 229.187 0.403469C229.144 0.509218 229.125 0.720719 229.125 1.09084C229.125 1.18043 229.125 1.31115 229.135 1.48887V1.92068C229.135 3.34682 229.054 3.97984 228.791 4.67749C228.472 5.52202 227.829 6.22701 226.934 6.7117C226.715 6.82626 226.582 6.88794 226.537 6.88794C226.495 6.88794 226.44 6.84388 226.37 6.75576C226.273 6.6412 226.174 6.5707 226.033 6.49138C226.651 6.20057 226.933 6.03314 227.253 5.75995C227.942 5.17833 228.312 4.41166 228.427 3.35417C228.471 2.93264 228.489 2.56251 228.489 1.75177C228.489 0.976275 228.462 0.465157 228.409 0.105316C229.062 0.131753 229.213 0.167004 229.213 0.308003H229.215Z" fill="#444444"/>
<path d="M240.267 2.62446C240.239 2.62446 240.205 2.60537 240.169 2.56278C239.781 2.14859 239.278 1.73588 238.737 1.40835C238.543 1.29526 238.534 1.28498 238.534 1.24238C238.534 1.19832 238.614 1.07495 238.755 0.916324C238.826 0.826731 238.869 0.801758 238.93 0.801758C239.178 0.81057 240.688 1.96353 240.688 2.13978C240.688 2.24553 240.362 2.62446 240.267 2.62446ZM244.514 2.1574C244.549 2.21028 244.558 2.247 244.558 2.28078C244.558 2.48493 243.709 3.46164 242.958 4.13139C241.97 5.00382 240.971 5.61041 239.618 6.18321C239.362 6.29631 239.221 6.36827 239.106 6.4564C239.053 6.50046 239.017 6.51809 238.991 6.51809C238.886 6.51809 238.673 6.18321 238.531 5.79547C239.168 5.66328 239.979 5.32987 240.768 4.88044C241.528 4.44863 242.163 3.98158 242.755 3.43668C243.365 2.87268 243.727 2.42471 244.257 1.59488C244.311 1.77113 244.355 1.86806 244.514 2.1574Z" fill="#444444"/>
<path d="M254.85 1.74486C254.488 2.22807 254.019 2.70394 253.507 3.13575C253.127 3.44419 252.932 3.57637 252.87 3.57637C252.826 3.57637 252.8 3.55875 252.755 3.5235C252.651 3.42803 252.517 3.34725 252.305 3.25031C253.205 2.71275 253.824 2.14876 254.417 1.32921C254.76 0.844522 254.946 0.484683 255.079 0C255.503 0.149811 255.784 0.308432 255.784 0.412713C255.784 0.447962 255.767 0.474398 255.705 0.527273C255.59 0.633022 255.563 0.66974 255.325 1.04721C255.272 1.13533 255.254 1.17058 255.229 1.20436C255.485 1.21318 256.113 1.21318 257.199 1.21318C257.481 1.21318 257.588 1.19555 257.72 1.14268C257.755 1.12505 257.81 1.11624 257.844 1.11624C257.906 1.11624 257.95 1.14267 258.074 1.2822C258.224 1.44083 258.339 1.60974 258.339 1.67142C258.339 1.73311 258.321 1.76689 258.243 1.8462C258.146 1.95195 258.091 2.02245 258.013 2.17373C257.006 4.09337 256.033 5.23898 254.534 6.26857C253.994 6.63869 253.34 7 253.217 7C253.172 7 253.136 6.98091 253.102 6.94713C252.96 6.79585 252.836 6.718 252.633 6.62107C254.019 6.0042 255.133 5.15821 256.097 3.99643C256.689 3.29144 257.193 2.44544 257.467 1.74192H254.853L254.85 1.74486Z" fill="#444444"/>
</svg>
